<svg xmlns="http://www.w3.org/2000/svg" version="1.1" xmlns:xlink="http://www.w3.org/1999/xlink" xmlns:svgjs="http://svgjs.dev/svgjs" width="1000" height="1000" viewBox="0 0 1000 1000"><rect width="1000" height="1000" fill="#ffffff"></rect><g transform="matrix(0.7,0,0,0.7,149.57575757575756,387.58926849105205)"><svg viewBox="0 0 396 127" data-background-color="#ffffff" preserveAspectRatio="xMidYMid meet" height="320" width="1000" xmlns="http://www.w3.org/2000/svg" xmlns:xlink="http://www.w3.org/1999/xlink"><g id="tight-bounds" transform="matrix(1,0,0,1,0.2400000000000091,0.2329072864230568)"><svg viewBox="0 0 395.52 126.5342226248337" height="126.5342226248337" width="395.52"><g><svg viewBox="0 0 764.0422448703296 244.43135999999996" height="126.5342226248337" width="395.52"><g transform="matrix(1,0,0,1,0,17.087767912087926)"><svg viewBox="0 0 395.5199999999999 210.2558241758241" height="210.2558241758241" width="395.5199999999999"><g id="textblocktransform"><svg viewBox="0 0 395.5199999999999 210.2558241758241" height="210.2558241758241" width="395.5199999999999" id="textblock"><g><svg viewBox="0 0 395.5199999999999 210.2558241758241" height="210.2558241758241" width="395.5199999999999"><g transform="matrix(1,0,0,1,0,0)"><svg width="395.5199999999999" viewBox="2.299999952316284 -37.900001525878906 72.78999328613281 38.70000076293945" height="210.2558241758241" data-palette-color="#919591"><path d="M5.55 0.1Q4.55 0.1 3.83-0.35 3.1-0.8 3.1-1.6L3.1-1.6Q4.2-2.7 4.2-7.45L4.2-7.45Q4.2-10.3 3.75-15.75L3.75-15.75Q3.25-20.95 3.25-23.95L3.25-23.95 3.35-26.7Q3.4-27.9 3.4-29.45L3.4-29.45Q3.4-30.85 2.9-33L2.9-33Q2.3-35.25 2.3-36.15L2.3-36.15Q2.3-37.9 6.15-37.9L6.15-37.9 6.9-37.9Q9.6-37.9 11.6-36.25L11.6-36.25Q13.2-34.85 14.3-32.2L14.3-32.2Q15.05-30.4 15.6-27.2L15.6-27.2Q15.9-24.4 15.9-22.8L15.9-22.8 15.9-21.2 15.9-18.85Q15.8-18.65 15.8-18.45L15.8-18.45Q15.8-18.05 15.85-17.85L15.85-17.85Q15.9-17.65 15.9-17.35L15.9-17.35Q15.9-15.75 15.43-13.53 14.95-11.3 14.05-9L14.05-9Q11.8-3.5 9-1.2L9-1.2Q7.35 0.1 5.55 0.1L5.55 0.1ZM6.6-2.8Q8.45-3.95 9.85-6.13 11.25-8.3 12-10.95L12-10.95Q13.35-15.85 13.35-20.85L13.35-20.85Q13.35-23.55 12.85-26.75L12.85-26.75Q12.3-29.85 10.5-32.35L10.5-32.35Q9.65-33.55 8.35-34.23 7.05-34.9 5.4-34.9L5.4-34.9 5.4-34.85Q5.4-30.35 6-21.25L6-21.25Q6.6-12.2 6.6-7.55L6.6-7.55 6.6-2.8ZM24.5-0.05Q20.15-0.05 20.15-1.55L20.15-1.55Q20.15-2.75 21.7-2.75L21.7-2.75 22.25-2.75 22.75-2.7Q23.15-2.7 23.3-2.95 23.45-3.2 23.45-3.85L23.45-3.85Q23.45-4.7 23.35-6.5L23.35-6.5Q23.2-7.7 23-10.8L23-10.8Q22.55-18.45 22.55-22.35L22.55-22.35Q22.55-23.75 22.6-24.9L22.6-24.9 22.65-27.45Q22.65-29.1 22.5-30.2L22.5-30.2Q21.7-30 21.35-30L21.35-30Q20.15-30 20.15-31.2L20.15-31.2Q20.15-31.8 20.9-32.25 21.65-32.7 22.8-32.9L22.8-32.9Q24.8-33.3 26.35-33.3L26.35-33.3Q26.95-33.3 27.37-32.88 27.8-32.45 27.8-31.9L27.8-31.9Q27.8-31.35 27.47-30.95 27.15-30.55 26.65-30.55L26.65-30.55Q26.35-30.55 26.15-30.6L26.15-30.6 25.75-30.6Q25.25-30.6 25.02-30.38 24.8-30.15 24.8-29.55L24.8-29.55Q24.8-24.7 25.4-14.95L25.4-14.95Q25.5-13.15 25.8-9.65L25.8-9.65Q26.05-7.35 26.05-4.95L26.05-4.95 26.05-3.05Q26.35-3.1 27.05-3.1L27.05-3.1Q29.15-3.1 29.15-1.35L29.15-1.35 29.15-1.05 27.9-0.2Q27.85-0.2 27.57-0.18 27.3-0.15 26.55-0.15L26.55-0.15Q24.95-0.05 24.5-0.05L24.5-0.05ZM38.09 0.6L37.14-0.15Q37.14-5.9 36.07-12.05 34.99-18.2 32.7-27.1L32.7-27.1Q32.59-27.6 32.24-28.65L32.24-28.65Q31.34-31.45 31.34-32.2L31.34-32.2Q31.34-32.65 31.72-33 32.09-33.35 32.54-33.35L32.54-33.35Q33.29-33.35 33.95-32.1L33.95-32.1Q34.59-30.9 35.14-28.88 35.7-26.85 36.34-23.85L36.34-23.85Q36.95-21 37.8-15.1L37.8-15.1 38.09-13.15 38.7-8.7Q38.89-6.85 39.05-6.05L39.05-6.05Q40.09-11.55 41.74-21.95L41.74-21.95Q43.09-30.85 43.64-34.1L43.64-34.1 44.74-34.1Q45.2-34.1 45.55-33.77 45.89-33.45 45.89-33L45.89-33Q45.89-31.2 45.47-29.13 45.05-27.05 44.2-24.15L44.2-24.15Q43.49-21.65 43.27-20.4 43.05-19.15 42.84-16.45L42.84-16.45Q42.45-10.4 41.59-5.6L41.59-5.6Q41.05-2.7 40.14-1.05 39.24 0.6 38.09 0.6L38.09 0.6ZM60.74 0.45Q59.59 0.45 59.04 0.1 58.49-0.25 58.49-1.2L58.49-1.2Q58.49-2.7 57.99-6.3L57.99-6.3 57.79-7.35 52.84-8.1Q52.54-6.95 51.99-3.45L51.99-3.45Q51.69-1 51.04-0.2L51.04-0.2Q50.69 0.25 50.04 0.25L50.04 0.25Q49.44 0.25 48.94-0.13 48.44-0.5 48.44-1.05L48.44-1.05 48.54-1.3 48.59-1.5Q51.89-14.35 53.59-26.85L53.59-26.85Q53.59-27.05 53.64-27.53 53.69-28 53.74-28.9L53.74-28.9Q53.89-30.75 54.07-31.85 54.24-32.95 54.64-33.5L54.64-33.5 56.34-33.5Q57.04-33.5 57.54-33.18 58.04-32.85 58.04-32.25L58.04-32.25Q58.04-28.45 59.09-20.95L59.09-20.95Q60.09-13.25 60.09-10.15L60.09-10.15Q60.09-9.85 60.34-8.6L60.34-8.6Q60.59-7.45 60.59-7.1L60.59-7.1Q60.59-6.75 61.09-4.1L61.09-4.1Q61.54-1.7 61.54-1L61.54-1 61.54-0.95Q61.54 0.15 60.74 0.45L60.74 0.45ZM57.44-9.15Q57.29-9.9 57.29-11L57.29-11Q57.29-15.5 56.49-22.5L56.49-22.5 55.99-27.7Q53.84-15.95 53.04-9.95L53.04-9.95Q53.79-9.45 57.44-9.15L57.44-9.15ZM73.54 0.8Q71.74 0.2 69.09 0.2L69.09 0.2Q68.29 0.7 67.39 0.7L67.39 0.7Q66.79 0.7 66.37 0.18 65.94-0.35 65.94-0.95L65.94-0.95Q65.94-5.15 66.29-12.15L66.29-12.15Q66.59-19.6 66.59-23.3L66.59-23.3 66.59-23.65Q66.29-26.8 66.29-28.35L66.29-28.35Q66.29-33.1 68.04-33.1L68.04-33.1Q68.54-33.1 68.92-32.73 69.29-32.35 69.29-31.85L69.29-31.85Q69.29-31.25 69.14-29.95L69.14-29.95Q68.99-28.7 68.99-28.05L68.99-28.05Q68.99-24.7 69.04-22L69.04-22Q69.09-19.35 69.09-16L69.09-16Q68.84-15.25 68.84-13.9L68.84-13.9 68.84-13.3 68.74-9.35Q68.64-7.6 68.64-5.35L68.64-5.35Q68.64-1.9 70.29-1.9L70.29-1.9Q70.39-1.9 70.62-1.93 70.84-1.95 71.24-1.95L71.24-1.95Q71.69-2 72.39-2L72.39-2Q75.09-2 75.09-0.5L75.09-0.5Q75.09 0 74.64 0.35 74.19 0.7 73.54 0.8L73.54 0.8Z" opacity="1" transform="matrix(1,0,0,1,0,0)" fill="#000000" class="undefined-text-0" data-fill-palette-color="primary" id="text-0"></path></svg></g></svg></g></svg></g></svg></g><g transform="matrix(1,0,0,1,519.6108848703295,0)"><svg viewBox="0 0 244.43135999999996 244.43135999999996" height="244.43135999999996" width="244.43135999999996"><g><svg viewBox="0 0 244.43135999999996 244.43135999999996" height="244.43135999999996" width="244.43135999999996"><g transform="matrix(1,0,0,1,77.63572632150635,64.60265593644992)"><svg viewBox="0 0 89.15990735698723 115.22604812710011" height="115.22604812710011" width="89.15990735698723"><g><svg xmlns="http://www.w3.org/2000/svg" xmlns:xlink="http://www.w3.org/1999/xlink" version="1.1" x="0" y="0" viewBox="12.982999801635742 1 75.68599700927734 97.81300354003906" enable-background="new 0 0 100 100" xml:space="preserve" height="115.22604812710011" width="89.15990735698723" class="icon-s-0" data-fill-palette-color="accent" id="s-0"><g fill="#636365" data-fill-palette-color="accent"><polygon fill-rule="evenodd" clip-rule="evenodd" points="12.983,10.59 30.001,98.813 24.129,39.764 53.15,37.872 53.096,27.989    64.549,1 53.622,18.977  " fill="#000000" data-fill-palette-color="accent"></polygon><polygon fill-rule="evenodd" clip-rule="evenodd" points="59.389,54.548 64.549,1.007 55.809,40.723 36.197,41.768 37.767,62.23    30.001,98.813 42.058,58.914  " fill="#000000" data-fill-palette-color="accent"></polygon><polygon fill-rule="evenodd" clip-rule="evenodd" points="62.8,67.182 63.349,56.729 47.37,60.484 47.338,72.281 30.001,98.813    51.681,71.197  " fill="#000000" data-fill-palette-color="accent"></polygon><polygon fill-rule="evenodd" clip-rule="evenodd" points="65.711,62.394 80.552,57.663 82.061,45.131 66.162,47.226  " fill="#000000" data-fill-palette-color="accent"></polygon><polygon fill-rule="evenodd" clip-rule="evenodd" points="72.07,44.502 83.058,43.085 84.639,32.807 76.56,32.434 64.549,1    72.979,31.967  " fill="#000000" data-fill-palette-color="accent"></polygon><polygon fill-rule="evenodd" clip-rule="evenodd" points="87.413,31.294 88.669,21.788 79.125,19.094 64.549,1 79.032,23.437    78.61,30.437  " fill="#000000" data-fill-palette-color="accent"></polygon></g></svg></g></svg></g><path d="M14.011 163.095c-0.305-0.912-0.364-1.765-0.179-2.558 0.191-0.796 0.651-1.316 1.38-1.559v0c1.335 0.666 4.164 0.276 8.488-1.169v0c2.596-0.868 6.307-2.337 11.133-4.407v0c4.583-2.039 8.24-3.514 10.968-4.426v0l3.799-1.111c1.11-0.322 2.371-0.719 3.783-1.19v0c1.273-0.425 2.811-1.193 4.615-2.303v0c1.869-1.23 3.212-1.982 4.03-2.254v0c1.595-0.533 2.978 0.951 4.148 4.452v0l0.343 1.025c0.821 2.457 0.786 4.847-0.105 7.172v0c-0.792 1.884-2.227 3.729-4.306 5.536v0c-1.411 1.232-3.49 2.584-6.235 4.058v0c-2.454 1.123-4.409 1.928-5.865 2.414v0l-2.194 0.733-3.2 1.07c-0.213-0.027-0.412-0.01-0.596 0.051v0c-0.361 0.121-0.626 0.234-0.794 0.339v0c-0.169 0.106-0.389 0.204-0.662 0.295v0c-1.456 0.487-3.269 0.853-5.439 1.1-2.17 0.247-4.44 0.309-6.811 0.186v0c-5.692-0.371-10.008-1.484-12.95-3.337v0c-1.685-1.105-2.802-2.477-3.351-4.117zM18.451 163.206c1.608 1.335 3.615 2.308 6.022 2.918 2.409 0.617 4.934 0.864 7.575 0.741v0c4.868-0.261 9.578-1.153 14.13-2.674v0c2.457-0.821 5.068-1.947 7.834-3.378v0c2.65-1.442 4.841-3.363 6.572-5.765v0c0.831-1.136 1.355-2.399 1.574-3.789 0.218-1.389 0.076-2.837-0.428-4.344v0l-0.066 0.022c-4.096 1.369-10.193 3.713-18.29 7.032v0c-8.061 3.299-14.207 5.656-18.437 7.069v0zM59.351 223.959c-3.424-2.385-4.723-4.168-3.899-5.352v0c0.656-0.942 1.592-0.99 2.808-0.143v0l0.658 0.458 0.543 0.464c0.318 0.221 0.606 0.275 0.863 0.162 0.252-0.117 0.558-0.433 0.917-0.948v0c0.465-0.668 1.154-1.739 2.065-3.211v0c0.536-1.026 1.575-2.816 3.118-5.369v0c3.846-6.27 6.839-10.941 8.98-14.015v0c0.767-1.101 1.486-2.093 2.157-2.975v0l2.153-2.968c0.904-1.298 1.599-2.425 2.085-3.379v0c-0.741-0.28-1.248-0.515-1.522-0.706v0c-0.942-0.656-1.085-1.455-0.429-2.398v0c0.332-0.477 0.913-0.686 1.744-0.628 0.84 0.056 1.769 0.321 2.789 0.795v0c1.79 0.783 3.295 1.6 4.517 2.451v0c0.471 0.328 0.757 0.776 0.859 1.342 0.107 0.571 0.01 1.072-0.292 1.505v0c-0.301 0.433-0.691 0.718-1.17 0.857-0.475 0.133-0.91 0.062-1.304-0.213v0c-0.236-0.164-0.419-0.321-0.552-0.469v0l-0.468-0.326c-0.394-0.275-0.74-0.385-1.038-0.333-0.307 0.055-0.624 0.318-0.952 0.789v0c-2.659 3.818-6.428 9.731-11.306 17.739v0c-0.906 1.476-2.201 3.674-3.884 6.594v0c-1.066 1.951-2.257 3.871-3.573 5.76v0l-1.562 2.243c0.262 0.126 0.67 0.381 1.223 0.767v0c1.654 1.152 2.001 2.419 1.039 3.799v0l-0.246 0.353-2.177-0.028c-0.038-0.027-0.175-0.105-0.409-0.236-0.225-0.132-0.633-0.405-1.225-0.816v0c-1.317-0.795-2.154-1.317-2.51-1.565zM124.067 244.431l-1.362-1.093c0.05-5.514-0.413-11.229-1.388-17.146-0.982-5.91-2.539-13.147-4.672-21.712v0c-0.089-0.481-0.296-1.228-0.62-2.239v0c-0.844-2.691-1.262-4.397-1.256-5.118v0c0.004-0.434 0.188-0.816 0.551-1.147 0.364-0.337 0.762-0.504 1.196-0.5v0c0.721 0.006 1.386 0.613 1.996 1.821v0c0.617 1.16 1.181 2.714 1.691 4.661 0.51 1.947 1.062 4.362 1.657 7.245v0c0.549 2.742 1.209 6.95 1.979 12.625v0l0.406 2.808 0.803 6.416c0.178 1.777 0.333 3.051 0.466 3.819v0c1.055-5.271 2.422-12.889 4.101-22.854v0c1.372-8.533 2.335-14.355 2.891-17.468v0l1.582 0.014c0.434 0.004 0.816 0.161 1.148 0.471 0.331 0.317 0.494 0.692 0.49 1.126v0c-0.016 1.729-0.236 3.586-0.661 5.572-0.425 1.986-1.057 4.366-1.897 7.142v0c-0.696 2.397-1.156 4.195-1.38 5.395-0.224 1.193-0.445 3.087-0.662 5.682v0c-0.439 5.804-1.087 11.005-1.943 15.604v0c-0.552 2.779-1.266 4.955-2.141 6.53-0.882 1.574-1.874 2.356-2.975 2.346zM200.498 216.302c-0.887 0.653-1.644 0.998-2.271 1.036-0.628 0.048-1.213-0.297-1.755-1.033v0c-0.85-1.156-2.491-2.987-4.922-5.492v0l-1.129-1.046-6.384 3.353c0.425 1.063 1.42 3.103 2.985 6.121v0c1.161 2.063 1.716 3.59 1.665 4.579v0c-0.012 0.547-0.27 1.007-0.776 1.379v0c-0.462 0.34-0.994 0.507-1.594 0.502-0.601-0.006-1.057-0.221-1.37-0.646v0l-0.093-0.379-0.115-0.276c-4.757-11.807-10.032-23.03-15.826-33.667v0c-0.115-0.156-0.288-0.431-0.52-0.824-0.231-0.393-0.585-0.953-1.061-1.68v0c-0.934-1.517-1.646-2.75-2.137-3.699-0.49-0.949-0.736-1.75-0.736-2.405v0l1.968-1.447c0.543-0.399 1.101-0.615 1.674-0.647 0.569-0.037 1.026 0.178 1.37 0.645v0c2.16 2.936 5.777 7.004 10.853 12.204v0c5.152 5.393 8.607 9.286 10.368 11.679v0c0.174 0.237 0.712 0.765 1.613 1.585v0c0.85 0.75 1.374 1.26 1.572 1.529v0c0.198 0.269 1.244 1.285 3.138 3.049v0c1.718 1.604 2.775 2.674 3.17 3.212v0l0.042 0.056c0.629 0.855 0.719 1.626 0.271 2.312zM188.473 207.981c-0.54-0.498-1.123-1.171-1.748-2.021v0c-2.559-3.479-6.137-7.696-10.735-12.652v0l-5.018-5.606c5.019 10.305 8.926 18.005 11.72 23.101v0c0.866-0.04 2.792-0.981 5.781-2.822zM237.03 160.344c-1.138 1.422-2.148 3.326-3.031 5.712v0c0.185 0.887 0.126 1.737-0.174 2.551v0c-0.199 0.538-0.607 0.911-1.225 1.117-0.611 0.208-1.189 0.212-1.733 0.01v0c-3.782-1.399-8.764-3.419-14.947-6.062v0c-6.606-2.749-11.575-4.74-14.905-5.971v0l-0.479-0.177c-2.936-0.78-5.102-1.428-6.499-1.944v0c-4.276-1.581-6.123-3.161-5.539-4.739v0c0.167-0.451 0.482-0.783 0.945-0.996 0.463-0.213 0.92-0.236 1.371-0.069v0c0.538 0.199 1.368 0.584 2.487 1.154v0c1.078 0.548 1.912 0.931 2.501 1.149v0c3.012 1.114 5.743 2.099 8.195 2.956v0c2.402 0.838 5.108 1.814 8.12 2.928v0c0.593 0.475 1.497 0.938 2.711 1.387v0l0.817 0.303 5.286 2.104c1.537 0.675 3.32 1.388 5.348 2.138v0c3.106 1.148 4.933 0.981 5.481-0.503v0c0.035-0.094 0.077-0.246 0.126-0.456 0.058-0.214 0.152-0.499 0.285-0.855v0c0.1-0.425 0.266-0.951 0.497-1.578v0c0.901-2.436 2.027-3.403 3.38-2.903v0c0.451 0.167 0.757 0.511 0.92 1.034 0.169 0.525 0.189 1.095 0.062 1.71z" fill="#000000" data-fill-palette-color="accent"></path><path d="M63.433 98.541C63.105 99.501 62.608 100.255 61.942 100.804 61.269 101.35 60.55 101.493 59.785 101.232V101.232C59.09 99.817 56.461 98.332 51.9 96.777V96.777C49.164 95.844 45.107 94.7 39.729 93.346V93.346C34.573 92.124 30.555 91.022 27.674 90.04V90.04L23.761 88.546C22.628 88.104 21.316 87.628 19.825 87.12V87.12C18.48 86.661 16.695 86.32 14.471 86.098V86.098C12.112 85.943 10.5 85.717 9.634 85.422V85.422C7.954 84.849 7.744 82.714 9.004 79.018V79.018L9.372 77.938C10.258 75.341 11.821 73.352 14.062 71.972V71.972C15.931 70.896 18.316 70.263 21.215 70.074V70.074C23.192 69.944 25.805 70.141 29.055 70.663V70.663C31.839 71.288 34.002 71.864 35.544 72.389V72.389L37.847 73.175 41.231 74.328C41.388 74.488 41.564 74.601 41.76 74.668V74.668C42.139 74.797 42.434 74.873 42.645 74.895V74.895C42.852 74.91 43.101 74.966 43.391 75.065V75.065C44.927 75.589 46.685 76.442 48.665 77.625 50.646 78.808 52.591 80.209 54.501 81.826V81.826C59.046 85.788 61.967 89.489 63.262 92.928V92.928C63.966 94.939 64.023 96.809 63.433 98.541ZM59.78 95.602C59.279 93.45 58.213 91.344 56.581 89.285 54.952 87.235 52.988 85.415 50.687 83.827V83.827C46.43 80.922 41.901 78.651 37.099 77.014V77.014C34.508 76.13 31.593 75.404 28.352 74.835V74.835C25.195 74.351 22.121 74.565 19.13 75.478V75.478C17.702 75.901 16.45 76.624 15.375 77.647 14.304 78.678 13.499 79.983 12.96 81.563V81.563L13.036 81.589C17.352 83.06 23.977 84.998 32.911 87.403V87.403C41.795 89.79 48.47 91.746 52.937 93.269V93.269ZM89.985 62.389C86.355 64.896 84.107 65.524 83.242 64.272V64.272C82.551 63.272 82.854 62.325 84.151 61.429V61.429L84.835 60.957 85.506 60.59C85.841 60.359 86 60.095 85.982 59.799 85.964 59.503 85.768 59.083 85.392 58.54V58.54C84.903 57.831 84.097 56.753 82.975 55.305V55.305C82.158 54.392 80.771 52.701 78.814 50.232V50.232C74.033 44.107 70.517 39.416 68.267 36.159V36.159C67.459 34.989 66.745 33.908 66.125 32.916V32.916L63.981 29.688C63.028 28.309 62.172 27.205 61.413 26.375V26.375C60.862 26.999 60.441 27.411 60.15 27.612V27.612C59.144 28.307 58.297 28.154 57.606 27.154V27.154C57.261 26.654 57.272 26.001 57.641 25.195 58.005 24.384 58.611 23.564 59.458 22.735V22.735C60.897 21.247 62.261 20.057 63.552 19.165V19.165C64.058 18.816 64.609 18.699 65.207 18.813 65.807 18.918 66.266 19.201 66.585 19.663V19.663C66.9 20.119 67.036 20.609 66.993 21.134 66.955 21.655 66.727 22.059 66.31 22.348V22.348C66.057 22.522 65.833 22.644 65.638 22.714V22.714L65.136 23.061C64.718 23.35 64.48 23.652 64.423 23.967 64.369 24.289 64.514 24.699 64.86 25.199V25.199C67.656 29.247 72.113 35.166 78.231 42.956V42.956C79.353 44.404 81.049 46.502 83.32 49.249V49.249C84.853 51.022 86.311 52.911 87.696 54.916V54.916L89.341 57.297C89.558 57.082 89.96 56.772 90.548 56.366V56.366C92.3 55.156 93.68 55.281 94.69 56.743V56.743L94.946 57.113 94.12 59.266C94.076 59.296 93.947 59.397 93.733 59.569 93.518 59.75 93.097 60.057 92.471 60.49V60.49C91.193 61.494 90.364 62.127 89.985 62.389ZM126.783 52.894L125.32 51.766C125.265 45.932 124.663 39.903 123.516 33.678 122.369 27.447 120.584 19.83 118.162 10.828V10.828C118.058 10.321 117.823 9.539 117.459 8.481V8.481C116.518 5.646 116.043 3.848 116.036 3.087V3.087C116.032 2.633 116.218 2.228 116.595 1.87 116.973 1.506 117.388 1.322 117.842 1.318V1.318C118.603 1.31 119.32 1.938 119.993 3.2V3.2C120.665 4.415 121.291 6.045 121.872 8.089 122.445 10.14 123.077 12.684 123.767 15.721V15.721C124.401 18.606 125.178 23.038 126.096 29.018V29.018L126.584 31.977 127.56 38.737C127.778 40.611 127.967 41.954 128.129 42.767V42.767C129.144 37.177 130.436 29.1 132.005 18.537V18.537C133.294 9.493 134.2 3.319 134.723 0.016V0.016L136.395 0C136.856-0.004 137.264 0.159 137.621 0.489 137.978 0.813 138.159 1.205 138.163 1.666V1.666C138.18 3.488 137.982 5.453 137.568 7.559 137.161 9.673 136.541 12.202 135.708 15.147V15.147C135.017 17.691 134.565 19.598 134.35 20.868 134.135 22.139 133.94 24.143 133.766 26.882V26.882C133.417 33.027 132.835 38.537 132.02 43.411V43.411C131.487 46.36 130.772 48.674 129.873 50.351 128.981 52.035 127.951 52.883 126.783 52.894ZM173.003 70.909C172.06 70.219 171.469 69.568 171.231 68.955 170.988 68.338 171.15 67.642 171.717 66.866V66.866C172.616 65.638 173.939 63.401 175.686 60.154V60.154L176.39 58.684 170.987 53.316C170.049 54.077 168.308 55.727 165.764 58.266V58.266C164.05 60.089 162.685 61.134 161.671 61.401V61.401C161.117 61.558 160.574 61.442 160.041 61.051V61.051C159.55 60.693 159.213 60.21 159.028 59.603 158.843 58.996 158.917 58.467 159.248 58.014V58.014L159.594 57.796 159.836 57.601C170.23 49.06 179.87 40.183 188.755 30.968V30.968C188.874 30.806 189.094 30.545 189.415 30.185 189.746 29.823 190.201 29.292 190.78 28.591V28.591C192.007 27.164 193.024 26.051 193.831 25.252 194.63 24.455 195.357 23.953 196.013 23.747V23.747L198.106 25.278C198.677 25.696 199.07 26.187 199.287 26.75 199.503 27.314 199.43 27.844 199.067 28.339V28.339C196.792 31.448 193.836 36.386 190.199 43.154V43.154C186.405 50.056 183.58 54.776 181.723 57.313V57.313C181.546 57.556 181.185 58.264 180.641 59.437V59.437C180.155 60.53 179.808 61.219 179.599 61.504V61.504C179.39 61.79 178.696 63.168 177.517 65.638V65.638C176.45 67.877 175.707 69.281 175.289 69.852V69.852L175.242 69.917C174.584 70.817 173.837 71.147 173.003 70.909ZM177.576 56.164C177.901 55.46 178.393 54.657 179.052 53.758V53.758C181.748 50.073 184.865 45.124 188.402 38.911V38.911L192.46 32.078C183.667 40.409 177.144 46.79 172.891 51.223V51.223C173.206 52.081 174.767 53.729 177.576 56.164ZM190.835 103.734C190.764 101.812 190.251 99.593 189.299 97.078V97.078C188.538 96.502 187.996 95.787 187.672 94.931V94.931C187.457 94.363 187.519 93.783 187.858 93.19 188.206 92.602 188.664 92.2 189.232 91.984V91.984C193.222 90.473 198.597 88.627 205.358 86.444V86.444C212.531 84.048 217.872 82.186 221.38 80.857V80.857L221.886 80.665C224.764 79.254 226.939 78.269 228.412 77.711V77.711C232.92 76.004 235.488 75.981 236.117 77.641V77.641C236.296 78.116 236.276 78.598 236.055 79.089 235.834 79.579 235.486 79.915 235.011 80.094V80.094C234.437 80.312 233.508 80.582 232.224 80.904V80.904C230.983 81.21 230.054 81.48 229.436 81.714V81.714C226.258 82.917 223.399 84.029 220.859 85.048V85.048C218.359 86.045 215.521 87.145 212.343 88.349V88.349C211.542 88.381 210.501 88.64 209.222 89.124V89.124L208.369 89.447 202.698 91.435C201.002 91.97 199.086 92.642 196.951 93.451V93.451C193.68 94.69 192.341 96.093 192.935 97.66V97.66C192.97 97.753 193.041 97.902 193.146 98.104 193.245 98.31 193.367 98.603 193.511 98.983V98.983C193.722 99.389 193.954 99.926 194.207 100.594V100.594C195.176 103.153 194.949 104.703 193.526 105.242V105.242C193.051 105.421 192.568 105.362 192.077 105.063 191.583 104.757 191.169 104.314 190.835 103.734Z" fill="#000000" data-fill-palette-color="accent"></path><path d="M10.322 123.089c0-12.166 9.863-22.029 22.028-22.028 12.166 0 22.029 9.863 22.029 22.028 0 12.166-9.863 22.029-22.029 22.029-12.166 0-22.029-9.863-22.028-22.029zM194.419 123.089c0-12.166 9.863-22.029 22.029-22.028 12.166 0 22.029 9.863 22.029 22.028 0 12.166-9.863 22.029-22.029 22.029-12.166 0-22.029-9.863-22.029-22.029z" fill="#000000" data-fill-palette-color="accent"></path></svg></g></svg></g></svg></g><defs></defs></svg><rect width="395.52" height="126.5342226248337" fill="none" stroke="none" visibility="hidden"></rect></g></svg></g></svg>