<?xml version="1.0" encoding="utf-8"?>
<!-- Generator: Adobe Illustrator 21.1.0, SVG Export Plug-In . SVG Version: 6.00 Build 0)  -->
<svg version="1.0" id="Capa_1" xmlns="http://www.w3.org/2000/svg" xmlns:xlink="http://www.w3.org/1999/xlink" x="0px" y="0px"
	 viewBox="0 0 1400 980" enable-background="new 0 0 1400 980" xml:space="preserve">
<g>
	<path fill="#151D38" d="M1241,620.4c-0.3,0.2-0.4,0.5-0.4,0.8c-0.2,4.5-2.7,7.4-6.5,9.3c-1.5,0.8-1.5,0.8-0.7,2.4
		c3.3,7-0.2,14.9-7.5,16.8c-4.6,1.2-8.7,0-12-3.5c-1.1-1.2-1.1-1.2-2.3,0c-6.7,6.6-17.4,4.1-20.1-4.7c-0.8-2.8-0.7-5.5,0.4-8.2
		c0.3-0.7,1-1.5,0.9-2.2c-0.1-0.8-1.3-0.8-2-1.1c-7.8-3.9-9-14.6-2.2-20c2.8-2.2,6.1-3.1,9.7-2.4c2.1,0.4,2.1,0.4,2.6-1.8
		c1.3-5.4,5.6-9,11.2-9.2c5.2-0.3,10,2.9,11.7,7.9c0.3,0.7,0.4,1.5,0.6,2.3c0.3,1.5,0.3,1.5,2.1,1.2c2.1-0.4,4.2-0.4,6.2,0.3
		c4.5,1.6,7.4,4.6,8,9.5c0,0.4,0,0.8,0.4,1.1C1241,619.4,1241,619.9,1241,620.4z"/>
	<path fill="#B2ACBF" d="M1222.9,647.3c3.6-0.1,6.4-1.9,8-5.3c1.6-3.4,1-6.7-1.4-9.6c-0.4-0.4-0.8-0.8-1.2-1.2
		c-0.7-1-0.4-2.1,0.8-2.4c0.4-0.1,0.8-0.1,1.2-0.2c3.8-0.7,6.4-2.9,7.4-6.7c1-3.7-0.2-6.8-3.1-9.2c-3-2.4-6.4-2.7-9.9-0.9
		c-0.9,0.5-1.7,1.4-2.8,0.7c-1.1-0.7-0.5-1.9-0.4-2.9c0.4-3.7-1-6.6-4.1-8.6c-3.1-2-6.4-2-9.5-0.1c-3.1,1.9-4.5,4.8-4.3,8.5
		c0.1,1,0.8,2.1-0.4,2.8c-1.2,0.7-1.9-0.3-2.8-0.8c-3.3-1.7-6.5-1.5-9.5,0.6c-3.1,2.2-4.3,5.4-3.6,9c0.7,3.6,3,5.9,6.6,6.9
		c0.8,0.2,1.7,0.2,2.6,0.4c1.4,0.3,1.8,1.3,0.9,2.4c-0.3,0.4-0.8,0.8-1.2,1.2c-2.9,3.2-3.1,7.8-0.6,11.3c2.4,3.4,7,4.7,10.9,2.9
		c2.1-0.9,3.7-2.5,4.6-4.7c0.3-0.7,0.6-1.5,1.6-1.6c1.1-0.1,1.4,0.9,1.8,1.6c0.4,0.7,0.7,1.4,1.2,2.1
		C1217.4,646.1,1219.7,647.2,1222.9,647.3z"/>
	<path fill="#151D38" d="M603,882.9c-0.5-0.2-1.1-0.3-1.6-0.5c-7.6-1.7-11.6-9.7-8.3-16.8c0.2-0.4,0.3-0.7,0.6-1.1
		c0.4-0.7,0.1-1-0.5-1.3c-0.4-0.2-0.7-0.3-1.1-0.5c-5.5-2.6-8.1-8.7-6.3-14.5c1.8-5.7,7.6-9.1,13.6-8.1c0.3,0.1,0.6,0.1,0.9,0.2
		c1,0.4,1.4-0.1,1.5-1.1c0.5-3.1,1.9-5.7,4.5-7.7c6.9-5.3,16.7-1.8,18.9,6.6c0.1,0.2,0.1,0.5,0.2,0.7c0.4,1.9,0.4,1.9,2.3,1.6
		c6.7-1.1,12.5,2.7,14,9c1.3,5.5-1.3,10.8-6.7,13.5c-1.1,0.5-1.4,0.9-0.7,2.1c3.2,5.5,1.3,14.2-6.7,17c-0.4,0.1-0.8,0.1-1,0.6
		c-1.8,0-3.5,0-5.3,0c-2.6-1.1-5.3-2.2-7-4.7c-0.6-0.8-1-0.1-1.3,0.3c-1.4,1.6-3.1,2.7-5.1,3.5c-1,0.4-2.1,0.2-2.9,0.9
		C604.3,882.9,603.7,882.9,603,882.9z"/>
	<path fill="#EDCFE4" d="M623.3,880c4.1,0,7.3-2.2,8.7-5.4c1.5-3.5,0.9-6.7-1.5-9.6c-0.6-0.8-1.8-1.3-1.4-2.5c0.4-1.3,1.7-1,2.6-1.2
		c4.7-0.9,8.1-5.7,7.3-10.3c-0.9-5-5.4-8.2-10.4-7.4c-1.2,0.2-2.3,0.6-3.3,1.3c-0.8,0.5-1.5,1-2.4,0.4c-0.9-0.6-0.5-1.6-0.4-2.4
		c0.1-0.6,0.2-1.3,0.2-1.9c-0.3-5.2-4.9-9-9.9-8.6c-5.7,0.5-8.9,6.2-8,10.3c0.2,0.8,0.4,1.6-0.4,2.2c-0.9,0.6-1.7,0.2-2.4-0.3
		c-0.2-0.1-0.4-0.3-0.6-0.4c-3.4-1.7-6.7-1.5-9.7,0.9c-3,2.3-4.2,5.5-3.2,9.2c0.9,3.7,3.5,6,7.3,6.8c1,0.2,2.4-0.3,3,1
		c0.7,1.5-0.8,2.1-1.5,2.9c-2.3,2.9-3,6-1.5,9.4c1.5,3.4,4.1,5.3,7.8,5.5c3.7,0.2,6.5-1.5,8.3-4.6c0.2-0.4,0.4-0.9,0.6-1.3
		c0.3-0.6,0.7-1,1.5-1c0.7,0,1.1,0.5,1.4,1.1c0.2,0.5,0.4,1,0.7,1.5C617.7,878.4,620.4,879.8,623.3,880z"/>
	<path fill="#151D38" d="M159,566.6c1-0.9,2.2-1.1,3.5-1c6.9,0.4,13.2,2.2,18.2,7.4c4,4.2,6,9.4,7,15c0.3,1.7-0.3,2.3-2.4,2.2
		c-13.8-0.5-21.9-7.2-25.2-20c-0.2-0.9-0.3-1.9-1.1-2.6C159,567.2,159,566.9,159,566.6z"/>
	<path fill="#151D38" d="M164.1,568.6c-1.1,0-1.3,0.2-1,1.3c0.8,3,2,5.9,3.8,8.5c4,5.8,9.9,8,16.6,8.8c0.9,0.1,1.1-0.4,0.9-1.2
		c-0.9-3.2-2.1-6.2-4-8.9C176.3,571.4,170.5,569.4,164.1,568.6z"/>
	<path fill="#151D38" d="M321.3,485.5c1,0.1,1.6-0.6,2.4-1c8-4.4,16.4-7.6,25.4-9.1c10.2-1.7,20.2-0.6,30.1,2.2
		c4.9,1.4,9.7,3.2,14.3,5.5c0.7,0.4,1.4,0.7,2.1,1.1c1.3,0.9,1.4,1.8,0.2,2.9c-0.3,0.3-0.6,0.5-0.9,0.7c-10.2,7.5-21.5,12.7-34,14.7
		c-10.5,1.7-20.9,0.6-31.1-2.4c-4.5-1.3-8.8-2.9-13-5c-1.8-0.9-1.8-0.9-2.9,0.9c-12.3,19.5-22.3,40.1-29.9,61.8
		c-6.5,18.5-11.1,37.5-13.8,57c-1.4,10.1-2.2,20.3-2.7,30.6c-0.5,11.4-0.2,22.9,0.7,34.3c1.5,19.5,4.9,38.7,10.2,57.5
		c0.2,0.7,0.4,1.4,0.6,2.1c0.2,0.9-0.2,1.6-1.1,1.8c-0.8,0.2-1.4-0.2-1.7-1c-0.2-0.4-0.3-0.9-0.4-1.4c-4.6-16.3-7.8-32.8-9.7-49.6
		c-1.5-13.9-2.2-27.7-1.7-41.7c0.7-20.7,3.3-41.1,8.2-61.2c12.6-51.8,37-97.4,73.3-136.4c22.6-24.4,48.7-44.3,78-60
		c1-0.5,2.6-0.8,2.6-1.7c0-0.8-1.6-1-2.5-1.5c-12.3-6.4-15.7-21.7-7.3-32.5c2.5-3.2,5.7-5.5,9.5-7.1c1.5-0.7,1.6-0.7,1-2.2
		c-5.9-14.6,4.6-28.9,19.2-30.2c3.9-0.4,7.7,0,11.3,1.4c1.3,0.5,1.8,0.2,2.3-1c3.5-7.4,9.5-11.7,17.5-13.1
		c11.4-1.9,21.4,3.9,25.5,12.6c0.9,1.9,0.9,1.8,3,1.1c7.9-2.6,15.3-1.8,22.2,2.9c8.7,5.9,11.7,16,8,25.8c-0.7,1.8-0.7,1.7,1,2.4
		c6.4,2.7,10.9,7.2,13.2,13.8c3.3,9.7-1.2,20.5-10.4,25.6c-0.9,0.5-1.8,1-2.8,1.3c-1.2,0.4-1.4,0.9-0.9,2.1c1.1,2.3,1.7,4.8,1.7,7.4
		c0.3,10.6-6.7,19.6-17.2,22.3c-4.9,1.2-9.8,1-14.6-0.7c-1.8-0.6-1.8-0.6-2.7,1.2c-4.3,8.3-11.3,12.7-20.6,13
		c-9.2,0.3-16.4-3.5-21.4-11.2c-0.7-1.1-0.8-2.8-1.9-3.1c-1-0.3-2.2,0.6-3.4,0.9c-10.4,2.9-21.3-1-26.8-9.6c-3-4.6-4.1-9.7-3.2-15.1
		c0.1-0.7,0.6-1.6,0-2c-0.6-0.4-1.3,0.4-1.9,0.7c-17.5,9.5-33.9,20.6-49.2,33.3c-19.8,16.6-37.2,35.4-52.1,56.4
		C322.1,483.8,321.2,484.4,321.3,485.5c-0.3,0-0.4,0.1-0.2,0.3C321.2,485.8,321.3,485.6,321.3,485.5z"/>
	<path fill="#FAE0D6" d="M481.7,394.9c6.5,0,12.4-1.9,17.8-5.6c13.4-9.4,15.5-27.7,4.7-40c-10.9-12.4-30.9-13.3-43.3-1.9
		c-10.7,9.8-11.8,26.2-2.3,37.2C464.7,391.6,472.5,394.9,481.7,394.9z"/>
	<path fill="#A3CEB5" d="M359.1,477.4c-1.4,0.1-2.7,0.2-4.1,0.2c-13.5,0.9-25.4,5.9-36.4,13.4c-1.3,0.9-1.3,1.1,0.2,1.8
		c9,4.2,18.4,6.9,28.3,7.4c16.3,0.9,30.6-4.5,43.8-13.4c1.3-0.9,1.3-1.1-0.2-1.8C380.7,480.4,370.2,477.7,359.1,477.4z"/>
	<path fill="#151D38" d="M679.9,248.3c-1.9,0-3.8,0-5.8,0c-0.9,0-1.2,0.3-0.7,1.2c1.4,2.4,2.6,4.9,3.7,7.5c1.6,3.7,2.9,7.5,3.8,11.4
		c0.1,0.5,0.2,0.9,0.3,1.4c0.2,1.8-0.5,2.4-2.3,2c-5.1-1.1-10-2.7-14.8-4.8c-3.3-1.5-3.4-1.5-3,2.1c0.5,4.8,0.3,9.6-0.2,14.4
		c-0.3,3.4-1.2,3.8-4.1,1.9c-5.2-3.5-9.9-7.5-14.1-12.2c-0.4-0.4-0.7-0.9-1.1-1.3c-0.8-0.9-1-0.8-1.3,0.4
		c-1.8,6.3-4.3,12.4-7.6,18.1c-0.4,0.7-0.8,1.4-1.3,2c-0.9,1.1-1.7,1-2.6,0c-0.4-0.4-0.6-0.9-0.9-1.4c-2.8-4.5-5.1-9.2-6.9-14.2
		c-0.7-2-0.8-2-2.1-0.4c-3.4,4.1-7.1,7.8-11.3,11.1c-2.9,2.2-3.5,2-4.3-1.6c-1.3-6.3-1.6-12.7-1.3-19.1c0-0.7,0.4-1.6-0.3-2
		c-0.6-0.3-1.1,0.4-1.7,0.7c-5.5,3-11.3,5.3-17.3,6.9c-0.4,0.1-0.8,0.2-1.2,0.3c-2.8,0.6-3.3,0-2.7-2.8c1-4.9,2.7-9.7,4.8-14.3
		c0.2-0.5,0.5-1,0.7-1.5c0.6-1.4,0.5-1.6-1-1.4c-3,0.4-6.1,0.3-9.1,0.4c-2.7,0-5.3-0.2-7.9-0.5c-2.5-0.3-2.9-1.2-1.6-3.3
		c3.5-5.5,7.7-10.4,12.6-14.7c0.3-0.3,0.6-0.5,0.9-0.8c0.3-0.4,1.1-0.5,0.9-1.2c-0.2-0.5-0.8-0.4-1.3-0.6
		c-6.4-1.8-12.5-4.4-18.2-7.9c-2.9-1.8-3-2.6,0-4.5c4.4-2.7,9-4.9,13.8-6.7c0.4-0.2,0.9-0.3,1.4-0.5c0.7-0.2,0.9-0.6,0.3-1.2
		c-0.4-0.4-0.9-0.7-1.3-1.1c-3.8-3.2-7.3-6.7-10.4-10.6c-0.4-0.5-0.8-1-1.1-1.5c-0.7-1.3-0.4-2.1,1-2.5c2.4-0.7,4.8-1,7.3-1.3
		c4.8-0.5,9.6-0.8,14.4-0.3c1.3,0.1,1.5-0.1,0.8-1.3c-3.2-5.7-5.7-11.6-7.3-17.9c-0.2-0.9-0.5-1.7-0.6-2.6c-0.1-1.2,0.5-1.8,1.7-1.7
		c0.9,0.1,1.7,0.3,2.6,0.5c4.7,1.1,9.2,2.7,13.6,4.7c0.6,0.3,1.2,0.5,1.8,0.8c0.5,0.2,0.8,0,0.7-0.6c0-0.4,0-0.8-0.1-1.2
		c-0.6-5.4-0.5-10.7,0.1-16c0-0.4,0.1-0.8,0.2-1.2c0.4-1.6,1.2-2,2.6-1.2c0.4,0.2,0.8,0.5,1.2,0.8c5.1,3.4,9.7,7.3,13.8,11.9
		c0.4,0.5,0.8,1,1.3,1.4c1,1.1,1.2,1.1,1.6-0.4c1.8-6.4,4.3-12.4,7.7-18c0.2-0.4,0.5-0.8,0.8-1.2c1.1-1.6,2.2-1.7,3.3-0.1
		c1.6,2.4,3,4.9,4.3,7.5c1.2,2.4,2.2,4.9,3.2,7.5c0.8,2.2,0.8,2.2,2.2,0.5c3.2-3.9,6.8-7.4,10.7-10.6c3.1-2.6,4.2-2.2,4.9,1.7
		c1.1,6.3,1.6,12.7,1.1,19.1c0,0.2,0,0.5-0.1,0.7c-0.1,1,0.3,1.1,1.1,0.7c1.8-1,3.7-2,5.5-2.9c4.3-2,8.7-3.6,13.3-4.7
		c0.4-0.1,0.8-0.2,1.2-0.3c2-0.3,2.6,0.3,2.2,2.4c-1,5.3-2.8,10.3-5,15.2c-1.4,3-1.2,2.8,1.8,2.5c4.9-0.5,9.7-0.3,14.6,0.1
		c3.7,0.3,4.1,1.4,2.1,4.2c-1.6,2.3-3.3,4.5-5.1,6.7c-0.4,0.5-1.4,1-1,1.7c0.2,0.4,1.2-0.1,1.8-0.2c5.5-1.2,11-2.3,16.5-3.1
		c11.3-1.6,22.6-2.2,34-1.8c7.2,0.2,14.4,0.9,21.5,1.8c0.3,0,0.7,0.2,0.8-0.1c0.1-0.3-0.3-0.5-0.6-0.7c-2.9-1.8-5.6-3.9-8.1-6.4
		c-5.9-5.9-8.9-13.2-10-21.3c-0.7-5.1-0.8-10.2,0-15.3c0.3-1.8,0.9-2.4,2.5-1.9c8.9,2.4,16.9,6.4,23.4,13.1
		c5.5,5.7,8.4,12.7,9.6,20.5c0.7,4.5,0.6,8.9,0.4,13.4c-0.1,2.1-0.1,2.1,2,2.7c12.7,3.1,25,7.4,36.8,13.1
		c36.4,17.3,64.9,43.4,85.6,78c0.2,0.3,0.3,0.5,0.5,0.8c0.5,0.8,0.7,1.7-0.3,2.3c-1,0.7-1.6,0.1-2.2-0.7c-0.3-0.5-0.7-1.1-1-1.6
		c-8.5-14.2-18.6-27.2-30.4-38.8c-18.2-18-39.2-31.8-62.9-41.5c-15.4-6.3-31.3-10.6-47.8-12.8c-15-2-30.1-2.3-45.2-0.8
		c-10.1,1-20.1,2.9-29.9,5.3c-1.9,0.5-3.2,1.8-4.5,3c-0.8,0.7,0.1,0.9,0.6,1c3.7,1,7.3,2.3,10.8,3.9c2.9,1.3,5.8,2.7,8.5,4.5
		c2.1,1.3,2.1,2.4,0,3.7c-4.4,2.9-9,5.1-13.9,6.9c-0.6,0.2-1.2,0.4-1.8,0.7c-0.7,0.3-0.8,0.7-0.2,1.2c1.7,1.5,3.5,3,5.2,4.6
		c2.6,2.4,4.9,5,7,7.9c1.5,2,1.2,3-1.3,3.5C690.1,247.9,685,248.5,679.9,248.3z"/>
	<path fill="#F8E8A0" d="M776.7,194.8c0.2-2.6,0-5.1-0.4-7.6c-1-6.3-3-12.1-7.1-17c-5.5-6.7-12.8-10.7-20.9-13.4
		c-1.7-0.6-1.8-0.5-2,1.3c-0.4,3.8-0.2,7.5,0.3,11.2c1.2,8.7,4.5,16.3,11.3,22.1c5,4.3,10.7,7.2,16.9,9.3c1.6,0.5,1.8,0.4,1.9-1.3
		C776.8,197.8,776.7,196.3,776.7,194.8z"/>
	<path fill="#EDCFE4" d="M578.9,196.1c-3.4,0.1-7.3,0.4-11.1,1c-1.7,0.3-1.8,0.5-0.7,1.9c4.9,5.7,10.4,10.6,16.9,14.4
		c5,3,10.4,5.2,16.2,6.4c1,0.2,1.5,0.1,1.5-1c0.1-1.3,0.3-2.5,0.6-3.8c0.8-3.8,2.3-7.3,4.6-10.4c0.7-1,0.7-1.5-0.5-2
		c-0.5-0.2-1-0.5-1.5-0.8C597,197.8,588.4,196.2,578.9,196.1z"/>
	<path fill="#EDCFE4" d="M654.4,169.5c-0.1-1.7-0.3-4.5-0.5-7.3c-0.1-1.2-0.3-2.4-0.5-3.6c-0.2-1.3-0.5-1.4-1.5-0.6
		c-0.2,0.1-0.4,0.3-0.6,0.5c-6.1,5.2-11.2,11.2-15.1,18.2c-2.6,4.6-4.5,9.4-5.5,14.5c-0.3,1.5-0.3,1.6,1.3,1.8c0.2,0,0.5,0,0.7,0.1
		c4.4,0.4,8.4,1.9,12.1,4.3c2.5,1.6,2.5,1.6,3.8-1C652.6,188.3,654.2,179.6,654.4,169.5z"/>
	<path fill="#EDCFE4" d="M682.9,191.9c-3.3,0.1-6.5,0.3-9.8,0.8c-7.7,1.2-15,3.7-21.6,7.9c-1.5,1-1.5,1-0.4,2.4
		c3.2,3.8,5.1,8.2,6.1,13.1c0.3,1.7,0.4,1.7,1.9,1.2c5.5-1.6,10.5-4.2,15.2-7.5c6.1-4.3,11.3-9.6,15.7-15.7c0.3-0.5,1.1-0.9,0.7-1.6
		c-0.3-0.5-1-0.3-1.5-0.3C687,191.9,685,191.8,682.9,191.9z"/>
	<path fill="#EDCFE4" d="M601.7,159.7c-0.4,0-0.6,0.1-0.6,0.3c-0.1,0.5-0.2,0.9-0.2,1.4c-0.5,5.6-0.2,11.2,0.7,16.7
		c1.2,7.5,3.7,14.5,7.9,20.9c0.8,1.3,0.9,1.3,2.1,0.3c3.7-3,7.8-5,12.4-6c2.7-0.5,2.6-0.6,1.8-3.1c0-0.1-0.1-0.2-0.1-0.2
		c-4.3-12.7-12.7-22.2-23.3-30C602.2,160,601.9,159.8,601.7,159.7z"/>
	<path fill="#EDCFE4" d="M604.9,271.1c0,3.8,0.3,7.7,1,11.5c0.3,1.8,0.5,1.9,1.8,0.7c4.3-3.6,8.1-7.7,11.4-12.3
		c4.3-5.9,7.5-12.3,9.2-19.4c0.7-2.8,0.7-2.8-2-3.2c-4.6-0.6-8.8-2.2-12.6-4.8c-1.5-1-1.5-1-2.4,0.6c-0.3,0.6-0.6,1.1-0.9,1.7
		C606.5,254,604.9,262.4,604.9,271.1z"/>
	<path fill="#EDCFE4" d="M679.8,245.5c0.5,0,1,0,1.4,0c3.5,0,7-0.4,10.5-1c1.3-0.2,1.4-0.5,0.6-1.5c-0.1-0.2-0.3-0.4-0.5-0.6
		c-6.1-7.1-13.3-12.9-21.8-16.9c-3.3-1.6-6.8-2.7-10.4-3.6c-2-0.5-2.1-0.4-2.3,1.7c0,0.1,0,0.2,0,0.2c-0.4,4.5-2,8.5-4.4,12.3
		c-1.5,2.2-1.5,2.2,1,3.5C662,243.8,670.7,245.5,679.8,245.5z"/>
	<path fill="#EDCFE4" d="M575.3,249.8c3.9,0.1,7.8-0.3,11.7-0.9c7.2-1.2,13.9-3.5,20.1-7.4c2.1-1.3,2.1-1.3,0.6-3.2
		c-2.8-3.4-4.5-7.3-5.5-11.6c-0.6-2.9-0.6-2.9-3.4-2c-0.3,0.1-0.6,0.2-0.9,0.3c-8.7,3.1-16,8.3-22.3,14.9c-2.4,2.5-4.7,5.2-6.7,8.1
		c-0.7,1.1-0.6,1.2,0.7,1.4C571.5,249.8,573.4,249.8,575.3,249.8z"/>
	<path fill="#EDCFE4" d="M658.5,274c-0.1-3.3-0.3-6.5-0.8-9.8c-1.2-7.7-3.6-14.9-7.8-21.5c-1-1.6-1.1-1.6-2.4-0.5
		c-3.9,3.2-8.3,5.3-13.4,6.1c-1.5,0.3-1.5,0.3-1.1,1.9c0.1,0.5,0.3,0.9,0.4,1.4c3,9.2,8.5,16.8,15.4,23.4c2.4,2.3,5,4.5,7.8,6.4
		c1.2,0.8,1.5,0.7,1.6-0.7C658.5,278.5,658.6,276.3,658.5,274z"/>
	<path fill="#EDCFE4" d="M676.4,268.1c1.4,0.2,1.5,0,1.2-1.2c-1.8-6.5-4.5-12.6-8.1-18.3c-0.4-0.6-0.9-1.1-1.7-1.2
		c-4.3-0.7-8.5-2-12.6-3.8c-0.3-0.1-0.7-0.5-1.1-0.2c-0.4,0.3,0,0.7,0.2,1c2.7,5,4.6,10.4,5.7,15.9c0.2,1,0.7,1.5,1.5,1.9
		c3.8,1.9,7.7,3.6,11.7,4.8C674.4,267.5,675.6,267.8,676.4,268.1z"/>
	<path fill="#EDCFE4" d="M582.3,173.5c-0.8,0-1,0.2-0.6,1.4c1.8,6.4,4.5,12.4,8,18.1c0.5,0.8,1.2,1.2,2.1,1.4
		c4.2,0.8,8.4,2,12.3,3.8c0.3,0.2,0.8,0.5,1.1,0.1c0.3-0.3-0.1-0.7-0.3-1c-2.7-5-4.6-10.2-5.6-15.7c-0.2-1.2-0.9-1.7-1.9-2.2
		c-4.5-2.3-9.1-4.1-14-5.5C582.9,173.7,582.6,173.5,582.3,173.5z"/>
	<path fill="#EDCFE4" d="M677.3,212.2c-1.1,0-1.1-0.1-2,0.5c-3.7,2.5-7.6,4.6-11.8,6.3c-0.3,0.1-0.7,0.1-0.7,0.5
		c0,0.3,0.4,0.5,0.7,0.6c5.6,1.6,10.7,4.1,15.6,7.3c0.7,0.5,1.4,0.6,2.3,0.3c5.1-1.6,10-3.7,14.7-6.5c1.3-0.8,1.3-0.9,0-1.7
		c-4.3-2.5-8.9-4.4-13.6-5.9C680.6,213.1,678.8,212.6,677.3,212.2z"/>
	<path fill="#EDCFE4" d="M581.9,229.5c1,0.1,1,0.2,1.8-0.3c3.8-2.6,7.8-4.8,12-6.4c0.3-0.1,0.5-0.3,0.8-0.5
		c-0.3-0.2-0.5-0.4-0.8-0.5c-5.6-1.7-10.9-4.2-15.8-7.4c-0.7-0.4-1.3-0.4-2-0.2c-5.1,1.6-10,3.7-14.7,6.4c-1.4,0.8-1.4,1,0.1,1.8
		c4.5,2.5,9.2,4.5,14.1,5.9C579,228.7,580.6,229.1,581.9,229.5z"/>
	<path fill="#EDCFE4" d="M677,173.5c0-1.1-0.6-0.8-1.2-0.6c-6.6,1.8-12.7,4.6-18.5,8.2c-0.9,0.6-1,1.4-1.2,2.2
		c-0.8,4.1-2,8-3.6,11.9c-0.2,0.4-0.7,0.9-0.2,1.3c0.3,0.3,0.7-0.1,1.1-0.3c4.9-2.7,10.2-4.5,15.7-5.6c1.1-0.2,1.6-0.8,2.1-1.7
		c2.3-4.6,4.2-9.3,5.6-14.2C676.8,174.1,676.9,173.7,677,173.5z"/>
	<path fill="#EDCFE4" d="M629.2,153.4c-0.5,0.1-0.7,0.5-0.9,0.8c-3.3,6-5.8,12.3-7.3,18.9c-0.2,0.7,0,1.2,0.4,1.8
		c2.6,3.7,4.7,7.6,6.3,11.8c0.1,0.3,0.3,0.7,0.5,0.7c0.5,0.1,0.5-0.5,0.6-0.8c1.6-5.6,4.1-10.7,7.3-15.5c0.4-0.6,0.6-1.1,0.4-1.8
		c-1.7-5.4-3.9-10.5-6.7-15.3C629.6,153.8,629.4,153.6,629.2,153.4z"/>
	<path fill="#EDCFE4" d="M638.3,268.2c0.2-0.8-0.3-1.4-0.7-1.9c-2.4-3.5-4.4-7.2-5.9-11.2c-0.1-0.4-0.2-0.9-0.6-1
		c-0.4,0-0.5,0.5-0.6,0.9c-1.6,5.5-4.1,10.6-7.2,15.3c-0.5,0.7-0.6,1.4-0.4,2.3c1.7,5.2,3.8,10.2,6.6,14.9c0.7,1.1,0.9,1.1,1.6-0.1
		c2.4-4.3,4.4-8.9,5.9-13.6C637.4,271.9,637.9,270.1,638.3,268.2z"/>
	<path fill="#EDCFE4" d="M607.2,245.6c-0.3-0.8-0.8-0.2-1.1-0.1c-5.1,2.7-10.5,4.7-16.2,5.8c-0.8,0.1-1.3,0.5-1.7,1.2
		c-2.5,4.8-4.5,9.9-5.9,15.1c-0.4,1.4-0.1,1.6,1.3,1.1c6.3-1.8,12.3-4.4,17.9-7.9c0.9-0.5,1.4-1.2,1.5-2.2c0.7-4,1.9-7.9,3.5-11.7
		C606.8,246.5,607,246.1,607.2,245.6z"/>
	<path fill="#151D38" d="M492.6,547.9c0.2-1-0.5-1.6-0.9-2.4c-2.2-4.5-4-9-3.9-14.2c0.1-5.8,3.7-10.9,9.1-12.9
		c5.5-2,11.8-0.5,15.6,3.7c0.3,0.3,0.5,0.6,0.8,0.9c1.1,1.3,1.1,1.3,2-0.1c5.4-8.5,16.8-9.3,23.3-1.6c0.1,0.1,0.2,0.3,0.3,0.4
		c1,1.2,1,1.2,1.8,0c0.8-1.3,1.7-2.5,2.9-3.5c4.5-3.7,9.5-4.6,14.8-2.5c5.3,2.1,8.2,6.2,8.7,11.9c0.5,4.8-0.7,9.3-2.4,13.8
		c-0.4,0.9-1.5,2.1-0.8,2.8c0.6,0.5,1.7-0.7,2.6-1.2c4.4-2.5,9-4.5,14.2-4.9c6.4-0.4,12.1,2.9,14.4,8.6c2.4,5.9,0.9,12.3-4.1,16.5
		c-0.1,0.1-0.1,0.1-0.2,0.2c-1.5,1.2-1.5,1.2,0.1,2.3c8.3,5.4,9,16.8,1.4,23.1c-0.3,0.3-0.6,0.5-1,0.7c-0.5,0.4-0.5,0.8,0.1,1.1
		c0.5,0.3,1,0.6,1.4,0.9c5.1,3.5,7.4,9.9,5.6,15.9c-1.8,6-7.1,9.9-13.4,10.1c-4.8,0.1-9.3-1.1-13.7-2.9c-0.9-0.4-1.8-0.8-2.6-1.1
		c-0.5-0.2-1-0.8-1.5-0.3c-0.3,0.3,0.2,0.9,0.5,1.3c1.7,3.1,3.1,6.3,3.9,9.7c0.8,3.4,1,6.8-0.3,10.1c-3.7,9.6-16.1,12.2-23.3,4.9
		c-0.5-0.5-1-1-1.4-1.6c-0.6-0.8-1-1.2-1.6,0c-1.7,3.2-4.3,5.3-7.7,6.5c-1,0.4-1.3,0.9-1.3,1.9c-0.4,18.9-3.8,37.3-9.6,55.3
		c-0.7,2.1-1.8,4.1-1.9,6.4c-0.1,0.1-0.3,0.1-0.3,0.2c0,0.2,0.1,0.2,0.3,0.1c0.1-0.1,0.1-0.3,0-0.4c0.7,0.2,1-0.4,1.3-0.8
		c8.9-8.8,19.8-11.4,32-10.4c3,0.3,6,0.7,9,1.5c2.1,0.6,2.4,1.1,1.6,3.1c-3.3,8.2-8,15.4-15,21c-6.5,5.2-14.1,7.3-22.3,7.6
		c-4.6,0.2-9.1-0.3-13.6-1.3c-2-0.4-2-0.4-2.9,1.4c-18.8,36.3-46.2,64.3-82.1,83.9c-15,8.2-31,14.1-47.6,18.1
		c-0.4,0.1-0.8,0.2-1.2,0.2c-1.4,0.2-2.2-0.1-2.3-1.1c-0.1-1.1,0.6-1.5,1.6-1.7c0.3-0.1,0.6-0.1,0.9-0.2c25.5-6.2,48.9-16.9,70-32.4
		c24.3-17.9,43.4-40.3,57.4-67c9.5-18.1,15.9-37.3,19.3-57.5c1.4-8,2.2-16.2,2.5-24.3c0-0.6,0-1.1,0-1.7c0-0.9-0.4-1.2-1.3-1.3
		c-4.5-0.3-8.1-2.2-10.8-5.9c-0.8-1.1-1.1-0.6-1.6,0.2c-1.8,3.2-4.5,5.4-8,6.5c-8.9,2.8-17.9-3.4-18.5-12.7
		c-0.3-4.3,0.7-8.4,2.1-12.4c0.4-1.3,1.4-2.5,1.2-4c-1.3,0.4-2.4,1.3-3.6,1.9c-4.2,2.2-8.5,4.1-13.3,4.3c-6.3,0.4-11.8-2.8-14.3-8.5
		c-2.4-5.6-1.1-12,3.5-16.2c0.3-0.3,0.6-0.5,0.9-0.8c1.2-1,1.2-1.1-0.1-1.9c-3.3-2-5.6-4.8-6.5-8.6c-1.4-5.7,0.1-10.6,4.5-14.5
		c0.4-0.3,0.7-0.6,1.1-0.9c0.6-0.4,0.7-0.8,0-1.2c-0.4-0.2-0.8-0.5-1.2-0.8c-5.1-3.5-7.4-9.6-5.8-15.6c1.7-6,6.6-10,12.9-10.4
		c5.5-0.4,10.6,1.2,15.5,3.3C490.7,547.2,491.5,548,492.6,547.9c0,0.2,0.1,0.4,0.3,0.1C493,547.9,492.8,547.8,492.6,547.9z"/>
	<path fill="#B2ACBF" d="M583.9,614.6c0.3,0,0.6,0,1,0c5.9-0.1,10.6-4.3,11.2-10.1c0.6-5.7-3.1-10.9-8.8-12.3
		c-1-0.2-2.1-0.3-3.1-0.3c-0.9,0-1.3-0.5-1.4-1.3c0-0.8,0.4-1.3,1.3-1.5c0.8-0.1,1.6-0.2,2.3-0.5c5.3-1.5,8.8-6.6,8.2-12
		c-0.6-5.6-5.1-9.9-10.7-10.2c-0.4,0-0.8,0-1.2,0c-0.8-0.1-1.4-0.5-1.4-1.3c-0.1-0.8,0.3-1.4,1.2-1.5c0.6-0.1,1.1-0.2,1.6-0.3
		c5.9-1.3,9.7-6.6,9-12.3c-0.8-6-5.7-10.2-11.8-10c-3.5,0.1-6.7,1.2-9.9,2.7c-3.4,1.6-6.6,3.6-9.6,5.8c-5,3.6-9.6,7.7-14.1,11.9
		c-1.4,1.3-1.4,1.4-0.1,2.7c0.7,0.8,1.4,1.5,2,2.4c6.5,9,7.5,18.6,2.9,28.7c-0.5,1.1-1.8,2.2-1.5,3.4c0.3,1.2,2,1.8,3,2.6
		c6.2,4.4,12.6,8.5,19.7,11.2C577.1,613.7,580.4,614.7,583.9,614.6z"/>
	<path fill="#B2ACBF" d="M476.1,546.3c-0.4,0-1,0-1.6,0.1c-5.7,0.3-10.3,4.7-10.7,10.1c-0.5,5.9,3.2,10.9,8.9,12.2
		c0.9,0.2,1.9,0.3,2.9,0.3c0.9,0,1.6,0.4,1.6,1.4c0,1-0.6,1.4-1.5,1.5c-0.6,0.1-1.3,0.2-1.9,0.4c-5.5,1.4-9,6.4-8.5,12
		c0.5,5.4,5.1,9.9,10.7,10.2c0.6,0,1.1,0,1.7,0.1c0.7,0.2,1.1,0.7,1,1.4c0,0.6-0.3,1.1-0.9,1.3c-0.7,0.2-1.4,0.2-2.1,0.4
		c-5.8,1.3-9.6,6.7-8.9,12.5c0.8,5.8,5.8,10,11.7,9.8c2.8-0.1,5.4-0.8,7.9-1.8c4.6-1.9,8.8-4.6,12.8-7.5c0.4-0.3,0.8-0.7,1.1-1.2
		c1.8-2.7,3.5-5.5,5.4-8.2c0.5-0.8,0.6-1.4,0-2.1c-1-1.3-1.7-2.7-2.4-4.1c-4.8-10.4-2.8-22,5.2-30.7c1.4-1.5,1.4-1.5-0.1-2.6
		c-5.9-4.3-11.9-8.4-18.5-11.5C485.5,548.1,481.1,546.5,476.1,546.3z"/>
	<path fill="#B2ACBF" d="M564.2,530c0-0.6,0-1.1,0-1.7c-0.4-5.6-4.8-10.3-10.2-10.7c-5.9-0.5-10.9,3.2-12.2,9
		c-0.2,1-0.2,2.1-0.3,3.1c-0.1,0.7-0.5,1.2-1.2,1.3c-0.8,0.1-1.4-0.3-1.6-1.1c-0.2-0.7-0.2-1.4-0.4-2.1c-1.4-5.5-6.3-9.1-11.9-8.7
		c-5.4,0.4-9.9,4.9-10.4,10.5c0,0.5,0,1,0,1.4c0,0.8-0.5,1.4-1.3,1.4c-0.9,0-1.3-0.5-1.5-1.3c-0.2-0.8-0.3-1.6-0.5-2.4
		c-1.9-6.9-9.7-10.4-16.1-7c-4.5,2.4-6.8,7.1-6,12.5c1.1,6.5,4.4,11.9,8.2,17.2c0.3,0.4,0.8,0.7,1.3,1c3.6,2.3,7.1,4.6,10.4,7.3
		c1.1,0.9,1.9,0.9,3.1,0.2c9.6-5.5,19.2-5.4,28.7,0.2c1.2,0.7,1.9,0.6,2.8-0.4c2.7-2.6,5.4-5.3,8.4-7.5c3.4-2.5,5.7-5.7,7.2-9.6
		c0.7-1.9,1.6-3.9,2.2-5.8C563.8,534.6,564.3,532.3,564.2,530z"/>
	<path fill="#B2ACBF" d="M569.3,628c0-1.6-0.5-3.9-1.4-6.1c-1.5-4-3.7-7.6-6-11.1c-0.7-1-1.5-1.8-2.5-2.5c-2.9-1.9-5.8-3.9-8.7-5.9
		c-1.8-1.3-1.5-1.4-3.1,0.2c-0.1,0.1-0.2,0.2-0.3,0.3c-9.6,9.5-24.7,10.5-35.6,2.4c-1.1-0.8-2-2.7-3.4-2.3c-1.2,0.3-1.8,2.2-2.5,3.4
		c-3.7,5.6-7,11.5-8.9,18c-1,3.3-1.6,6.7-0.9,10.2c1.2,5.5,6.2,9.4,11.9,9c5.6-0.4,10.1-5,10.4-10.7c0-0.5,0-1,0.1-1.4
		c0.2-0.8,0.6-1.3,1.5-1.3c0.8,0,1.2,0.5,1.3,1.1c0.1,0.5,0.2,1.1,0.3,1.6c1,5.4,5.8,9.3,11.3,9.2c5.6-0.1,10.2-4.3,10.9-9.8
		c0.1-0.8,0.1-1.6,0.2-2.4c0.1-0.7,0.5-1.2,1.3-1.2c0.7,0,1.2,0.4,1.4,1c0.1,0.4,0.1,0.8,0.2,1.2c1,6,6.2,10.2,12,9.8
		C564.8,640.1,569.3,635.1,569.3,628z"/>
	<path fill="#A3CEB5" d="M528.5,726.8c7.2,0,13.7-1.2,19.5-4.7c7.9-4.8,12.9-12,16.7-20.2c0.7-1.4-0.4-1.4-1.2-1.6
		c-7-1.4-14-1.6-20.9,0.2c-12.7,3.4-19.9,12.6-25.1,23.9c-0.4,0.9,0,1.1,0.8,1.2C521.7,726.4,525.3,726.7,528.5,726.8z"/>
	<path fill="#151D38" d="M712.2,382.4c0.1,5.3-0.8,10.7-2.7,16c-0.2,0.5-0.7,1.1-0.2,1.5c0.5,0.4,1-0.2,1.5-0.4
		c7.2-3,14.7-3.6,22.4-2.4c2.8,0.4,3.2,1.3,1.6,3.6c-4.6,6.7-10.3,12.2-17.7,15.7c-0.2,0.1-0.5,0.2-0.7,0.3
		c-0.2,0.1-0.7,0.2-0.6,0.6c0,0.2,0.3,0.4,0.5,0.5c0.4,0.2,0.9,0.4,1.3,0.6c7.3,3.4,12.9,8.8,17.5,15.3c0.1,0.2,0.3,0.4,0.4,0.6
		c0.9,1.6,0.5,2.4-1.2,2.8c-3.3,0.6-6.6,1-10,0.8c-3.7-0.2-7.3-0.7-10.8-1.9c-0.4-0.1-0.8-0.4-1.1,0c-0.1,0.1,0.3,0.7,0.5,1
		c3.2,3.8,6.2,7.7,9.2,11.7c9.7,13.2,17.8,27.3,24.5,42.3c0.3,0.7,0.3,1.8,1.3,2.1c0-0.8,0.1-1.6,0.1-2.4
		c-0.2-6.3,0.8-12.4,3.5-18.2c3.4-7.1,8.8-12.3,15.3-16.5c3.1-2,6.3-3.7,9.8-5c1.6-0.6,2.3-0.4,2.7,1.3c2.8,11.5,3.1,22.8-2.7,33.6
		c-3.5,6.6-9,11.4-15.3,15.3c-2.2,1.4-4.6,2.6-7,3.7c-1.9,0.8-2,0.6-1.2,2.8c3.1,8.9,5.7,18,7.7,27.2c3,13.9,4.7,28,5.1,42.3
		c0.3,12.9-0.3,25.7-2.1,38.5c-3.3,23-9.9,45.1-19.9,66.1c-9.4,19.7-21.4,37.6-35.9,53.9c-0.4,0.5-0.8,1-1.3,1.4
		c-0.7,0.6-1.5,0.7-2.1,0c-0.6-0.6-0.5-1.3,0-1.9c0.4-0.5,0.8-1,1.3-1.4c20.6-23,35.8-49.2,45.7-78.4c4.6-13.7,7.8-27.7,9.7-42
		c1.8-13.4,2.4-26.9,1.7-40.4c-1.4-28.5-7.9-55.8-19.6-81.8c-8-17.7-18-34-30.3-49.1c-0.5-0.6-1.1-1.8-1.6-1.5
		c-0.7,0.4,0.1,1.4,0.2,2.1c1.3,6.2,1.4,12.4,0.5,18.6c-0.3,2.4-1.4,2.8-3.4,1.3c-6.3-4.8-11.1-10.8-14.3-18c-0.2-0.5-0.4-1-0.6-1.5
		c-0.1-0.2-0.3-0.4-0.5-0.5c-0.4-0.1-0.4,0.4-0.5,0.6c-0.3,0.7-0.6,1.5-0.9,2.2c-3.1,6.8-7.6,12.4-13.3,17c-0.2,0.2-0.4,0.3-0.6,0.4
		c-2,1.5-2.9,1.1-3.3-1.4c-1.2-8.4-0.8-16.6,2.1-24.6c0.1-0.4,0.3-0.7,0.4-1.1c0.1-0.4-0.2-0.6-0.5-0.5c-0.5,0.2-1,0.4-1.5,0.6
		c-7.2,2.9-14.6,3.4-22.1,2.2c-2.6-0.4-3-1.3-1.5-3.5c4.6-6.7,10.3-12.2,17.7-15.7c0.3-0.1,0.6-0.3,0.9-0.4c0.8-0.3,0.5-0.7,0-0.9
		c-0.9-0.4-1.8-0.8-2.6-1.2c-6.7-3.6-12-8.7-16.3-14.9c-1.4-2-1-2.8,1.3-3.3c7.5-1.4,15-0.9,22.2,1.8c0.4,0.2,0.9,0.4,1.3,0.5
		c0.3,0.1,0.7,0.3,0.9,0.1c0.5-0.3,0.1-0.7,0-1.1c-2.7-6.8-3.4-13.9-3-21.2c0.1-1.4,0.3-2.9,0.5-4.3c0.3-2,1.3-2.4,3-1.3
		c2.5,1.8,4.7,3.9,6.7,6.1c3.4,3.8,6.2,7.9,8.1,12.6c0.2,0.4,0.4,0.9,0.6,1.3c0.2,0.3,0.5,0.4,0.7,0c0.3-0.6,0.5-1.2,0.7-1.8
		c3.1-7.2,7.8-13.2,13.9-18.1c0.2-0.2,0.4-0.3,0.6-0.4c1.7-1.2,2.6-0.8,3,1.2c0.5,2.4,0.6,4.8,0.7,7.2
		C712.2,381,712.2,381.5,712.2,382.4z"/>
	<path fill="#A3CEB5" d="M750.8,489.9c-0.2,3.2,0.3,6.7,1,10.2c0.4,2.1,0.5,2.1,2.5,1.2c2.2-1.1,4.4-2.3,6.5-3.6
		c5-3.3,9.4-7.2,12.5-12.4c5.7-9.5,5.8-19.7,3.7-30.2c-0.3-1.3-1-1-1.7-0.6c-3.7,1.7-7.2,3.8-10.4,6.3
		C755.3,468,750.7,477.6,750.8,489.9z"/>
	<path fill="#F8E8A0" d="M709.5,452.8c0.2-4-0.4-8-1.4-11.8c-0.9-3.3-2.2-6.5-4-9.4c-0.9-1.5-1.4-1.6-2.9-0.7
		c-1.5,0.9-3.1,1.6-4.9,1.9c-1.3,0.2-1.7,1-1.7,2.1c0,0.6,0.1,1.1,0.2,1.6c1.1,4.7,3,9.1,5.8,13c2.1,3.1,4.6,5.9,7.5,8.4
		c0.9,0.7,1.3,0.6,1.3-0.5C709.6,455.8,709.5,454.3,709.5,452.8z"/>
	<path fill="#F8E8A0" d="M676.4,381.1c0.1,7.8,1.4,14.6,4.9,20.9c0.3,0.5,0.5,1,0.9,1.4c0.6,0.9,1.4,1.2,2.4,0.5
		c1.6-1.1,3.4-1.8,5.3-2.1c1.1-0.2,1.4-0.8,1.5-1.8c0-0.7-0.1-1.4-0.3-2.1c-1.6-7-5.2-13-10.1-18.2c-1-1.1-2.2-2.1-3.3-3.2
		c-0.6-0.6-1-0.3-1.1,0.4C676.5,378.6,676.5,380.2,676.4,381.1z"/>
	<path fill="#F8E8A0" d="M709.1,382.2c0-1.8,0-3.5,0-5.3c0-1-0.5-1-1.2-0.5c-0.2,0.2-0.4,0.3-0.5,0.5c-6.2,5.7-10.6,12.5-12.5,20.8
		c-0.2,0.7-0.2,1.4-0.2,2.1c0,1.1,0.4,1.8,1.6,2c1.9,0.2,3.5,1.1,5.1,1.9c1.3,0.7,1.7,0.6,2.6-0.6c0.4-0.5,0.7-1.1,1-1.7
		C708,395.5,709.4,389,709.1,382.2z"/>
	<path fill="#F8E8A0" d="M691.6,435.3c0.1-1.8-0.2-2.2-2-2.6c-1.7-0.4-3.4-1-4.8-2c-1-0.7-1.6-0.4-2.2,0.4c-0.3,0.4-0.6,0.9-0.9,1.4
		c-3.8,6.8-5,14.2-4.8,21.9c0,0.9,0.1,1.8,0.1,2.6c0,0.5-0.1,1,0.4,1.3c0.6,0.3,0.8-0.3,1.2-0.5c0.1-0.1,0.3-0.2,0.4-0.3
		c4.6-4.4,8.4-9.4,10.7-15.4C690.5,439.9,691.2,437.6,691.6,435.3z"/>
	<path fill="#F8E8A0" d="M659.5,399.7c-1.6,0.1-2.9,0.2-4.2,0.3c-1,0.1-1,0.5-0.5,1.2c1.6,2.1,3.4,4,5.3,5.8
		c4.4,4.1,9.4,7.2,15.3,8.5c1.6,0.4,1.7,0.3,2.1-1.3c0.5-2.2,1.3-4.3,2.6-6.1c0.9-1.3,0.8-1.6-0.4-2.6c-0.4-0.4-0.9-0.6-1.4-0.9
		C672.5,401,666,399.7,659.5,399.7z"/>
	<path fill="#F8E8A0" d="M724,434.8c2.3,0.4,4.4-0.1,6.6-0.2c0.9,0,1.2-0.4,0.6-1.2c-0.1-0.2-0.3-0.4-0.4-0.6
		c-3.6-4.6-7.8-8.4-13-11.2c-2.2-1.2-4.5-2-6.9-2.6c-1.9-0.5-1.9-0.5-2.4,1.4c-0.4,1.8-1.1,3.5-2,5.1c-1.5,2.6-1.5,2.7,1.1,4.3
		c0.4,0.3,0.8,0.5,1.2,0.7C713.6,433.3,718.8,434.6,724,434.8z"/>
	<path fill="#F8E8A0" d="M660.1,435.3c6.5,0,12.6-1.5,18.2-5c0.7-0.4,1.3-0.9,1.9-1.4c0.6-0.6,0.9-1.2,0.2-2.1
		c-1.5-2-2.5-4.3-2.9-6.7c-0.2-0.9-0.7-1.2-1.5-1c-0.5,0.1-1.1,0.3-1.6,0.4c-8.1,2.4-14.1,7.6-19.1,14.1c-0.1,0.1-0.2,0.2-0.3,0.4
		c-0.4,0.7-0.2,1.1,0.6,1.1C657,435.1,658.5,435.2,660.1,435.3z"/>
	<path fill="#F8E8A0" d="M726.1,399.4c-5.3,0-10.3,1-15.1,3.2c-1.7,0.8-3.4,1.8-4.9,2.9c-0.8,0.7-1.2,1.4-0.4,2.4
		c1.5,1.9,2.4,4.1,2.8,6.5c0.2,0.9,0.6,1.3,1.5,1.1c0.5-0.1,1.1-0.2,1.6-0.4c5.4-1.6,10-4.5,14.1-8.3c1.9-1.8,3.7-3.7,5.3-5.9
		c0.7-0.9,0.5-1.3-0.6-1.4C729,399.5,727.6,399.5,726.1,399.4z"/>
	<path fill="#151D38" d="M994.9,749.6c1.2,0.4,1.5-0.7,2-1.3c4-4.8,8.5-9.1,13.6-12.8c7.7-5.5,16.4-8.6,25.7-10
		c5.1-0.8,10.3-1.2,15.5-0.7c0.6,0.1,1.1,0.1,1.7,0.2c1,0.3,1.3,1,1,2c-0.1,0.3-0.3,0.6-0.4,0.8c-8,12.8-18.4,22.7-32.7,28
		c-6.6,2.4-13.4,3.6-20.4,3.8c-3.4,0.1-6.7,0.3-10-0.6c-0.6-0.2-0.9,0.1-1.2,0.6c-0.4,0.6-0.7,1.2-1.1,1.9
		c-9.9,16.7-21.8,32-35.6,45.7c-16.7,16.5-35.4,30.1-56.2,40.9c-21,10.8-43.1,18.2-66.4,22.1c-16.5,2.8-33.1,3.5-49.7,2.9
		c-0.6,0-1.1-0.1-1.7-0.2c-0.7-0.1-1.1-0.6-1.1-1.3c0-0.9,0.5-1.3,1.3-1.5c0.4-0.1,0.8,0,1.2,0c37.9,1.9,74-5.1,108.3-21.3
		c22.1-10.4,41.9-24.2,59.6-41.1c15.1-14.4,27.8-30.6,38.4-48.6c0.2-0.4,0.5-0.8,0.7-1.3c0.3-0.5,0.1-0.9-0.3-1.2
		c-0.5-0.4-1-0.7-1.6-1.1c-6.9-5.1-12.9-11-17.5-18.3c-6.1-9.5-8.7-20-9.3-31.1c-0.2-2.7,0-5.4,0.1-8.1c0.1-2.7,1.3-3.2,3.5-1.9
		c5.2,3.3,9.9,7,14.2,11.4c9.9,10.1,15.3,22.3,16.9,36.2c0,0.4,0.1,0.8,0.1,1.2c0,0.2,0.1,0.4,0.2,0.4c0.2,0.1,0.5-0.1,0.6-0.3
		c0.4-0.8,0.8-1.5,1.2-2.3c6.2-12.9,11.1-26.3,14.8-40.2c0-0.1,0-0.2,0.1-0.2c0.6-2.2,0.6-2.2-1.6-3c-5-1.7-10-3.5-14.7-5.9
		c-2.4-1.2-4.6-2.6-6.7-4.2c-7.6-5.8-10.5-13.5-8.4-22.9c0.2-1,0.5-2,0.8-3c1.7-5.7,5.3-9.4,11.2-10.6c1.3-0.3,1.9-0.8,2.1-2.1
		c1.6-10.4,4.2-20.7,6.1-31c2.2-11.7,4.1-23.5,3.5-35.5c-0.2-4-0.7-8-1.5-11.9c0-0.2-0.1-0.3-0.1-0.5c-0.2-0.9-0.7-2,0.4-2.6
		c1.1-0.7,2,0.1,2.8,0.8c3,2.3,5.8,4.8,8.4,7.5c2.3,2.3,4.4,4.8,6.3,7.5c2.2,3.2,4,6.5,4.9,10.3c0.1,0.3,0.1,0.7,0.6,0.6
		c0.2,0,0.4-0.3,0.5-0.5c0.6-1.1,1.2-2.2,1.9-3.3c5.4-9,12.2-16.6,21.4-21.9c3.9-2.2,4.1-2.2,5.9,1.9c3.7,8.1,5,16.6,4.8,25.5
		c-0.1,2.8-0.4,5.6-0.6,8.4c0,0.3-0.2,0.7,0.1,0.9c0.3,0.2,0.6-0.1,0.8-0.3c6.8-5.4,14.8-7.2,23.2-8.4c2.5-0.3,4.9-0.6,7.4-0.6
		c0.6,0,1.1-0.1,1.7,0.1c1.2,0.2,1.6,1.3,0.9,2.3c-0.2,0.3-0.4,0.5-0.7,0.7c-8.2,7.2-14.2,16-19.4,25.4c-4.9,8.8-8.9,18-13,27.3
		c-2.3,5.3-4.7,10.5-7.2,15.7c-0.8,1.6-0.8,1.6,0.6,2.9c4.7,4.4,5.8,9.7,3.9,15.8c-1.3,4.3-3.4,8.3-6.8,11.4
		c-4.6,4.2-10.1,5.6-16.2,5.5c-5.6-0.1-10.9-1.3-16.3-2.7c-0.8-0.2-1.7-0.4-2.5-0.7c-0.9-0.3-1.3,0.1-1.5,0.9
		c-0.5,1.9-1,3.9-1.6,5.8c-3.9,13.7-9.1,26.9-15.5,39.7C995.7,748.5,995.6,749.2,994.9,749.6c0,0.2,0.1,0.4,0.1,0.6
		C995,750,994.9,749.8,994.9,749.6z"/>
	<path fill="#EDCFE4" d="M1055.7,597.3c0-5-0.4-8.8-1.1-12.6c-0.7-3.7-1.8-7.3-3.3-10.7c-0.8-1.8-0.8-1.8-2.6-0.8
		c-2,1.2-3.9,2.5-5.7,4c-8.7,7.2-14.8,16.3-19,26.6c-0.2,0.6-0.4,1.2-0.7,1.8c-0.4,0.7-1,1.1-1.8,0.8c-0.9-0.2-1-1-0.9-1.7
		c0.1-0.9,0.4-1.9,0.5-2.8c0.5-4.2-0.8-8.1-2.8-11.7c-2.5-4.6-5.9-8.5-9.7-12.2c-1.1-1.1-2.2-2-3.4-3c-0.2-0.1-0.4-0.2-0.6-0.2
		c-0.3,0-0.3,0.3-0.2,0.6c0,0.2,0.1,0.5,0.1,0.7c1.3,8.7,1.1,17.4,0.1,26.1c-1.1,10.3-3.3,20.5-5.4,30.7c-1.3,6-2.4,12.1-3.6,18.1
		c-0.3,1.3,0,1.8,1.4,2.1c5.2,1.3,8.6,4.7,10.3,9.8c0.1,0.3,0.2,0.6,0.3,0.9c0.1,0.7,0.5,0.8,1,0.4c0.4-0.3,0.9-0.7,1.3-1
		c4.2-2.8,8.8-3.3,13.5-1.6c4.5,1.7,7.3,5,8.7,9.6c0.4,1.4,0.5,1.4,1.6,0.6c3.9-3,8.3-4,13.1-2.6c1.4,0.4,1.9-0.1,2.4-1.2
		c0.8-1.9,1.8-3.8,2.7-5.6c5-10.8,9.5-21.8,14.9-32.4c4.6-9,9.8-17.6,16.6-25.2c0.9-1,1.7-1.9,2.6-2.8c0.1-0.2,0.3-0.4,0.3-0.6
		c-0.1-0.4-0.5-0.3-0.8-0.3c-7.3,0.6-14.4,2-20.9,5.5c-3.6,2-6.5,4.6-8.2,8.4c-0.9,1.9-1.4,2.5-2.4,2c-1.4-0.7-0.8-1.9-0.5-2.9
		C1054.9,608.1,1055.6,602.2,1055.7,597.3z"/>
	<path fill="#F8E8A0" d="M1033.3,702c6.8,0,12.8-1.8,16.8-7.7c1.8-2.6,3-5.4,3.8-8.5c1.5-5.6-1.5-11.4-6.8-13.5
		c-5.4-2.2-11.6,0.1-14.4,5.2c-0.3,0.6-0.5,1.2-0.8,1.8c-0.4,0.8-1,1.3-1.9,1c-0.9-0.3-1.1-1-0.9-1.9c0.2-1.2,0.5-2.4,0.5-3.5
		c-0.1-5.3-4-10-9.3-11.1c-5-1.1-10.2,1.5-12.6,6.2c-0.3,0.6-0.5,1.2-0.8,1.7c-0.4,0.6-1,0.7-1.7,0.6c-0.7-0.2-1-0.8-0.9-1.5
		c0-0.5,0.2-0.9,0.3-1.4c1.2-6-2.3-11.8-8.1-13.4c-5.8-1.6-11.8,1.4-13.9,7.2c-0.6,1.5-1,3-1.3,4.6c-1.6,7.6,0.7,13.9,6.7,18.8
		c1.9,1.5,3.9,2.8,6,3.9c8,4.2,16.5,6.9,25.1,9.2C1023.9,700.9,1028.6,701.8,1033.3,702z"/>
	<path fill="#A3CEB5" d="M999.9,756.8c2.8,0,4.9-0.2,7-0.5c11.5-1.5,21.7-5.7,30.5-13.3c4.6-4.1,8.8-8.6,12.2-13.8
		c0.8-1.2,0.7-1.5-0.7-1.5c-2.4,0-4.8,0.1-7.2,0.3c-7.5,0.6-14.7,2.2-21.5,5.4c-10.4,4.9-18.3,12.6-24.8,22
		c-0.1,0.2-0.3,0.4-0.4,0.6c-0.4,0.6-0.1,0.8,0.5,0.9C997.2,757.1,998.8,756.9,999.9,756.8z"/>
	<path fill="#A3CEB5" d="M990.7,749.7c-0.3-6.4-1.3-12.6-3.3-18.6c-3.9-11.7-11.3-20.8-21-28.3c-1.2-0.9-2.5-1.8-3.7-2.7
		c-0.9-0.7-1.2-0.3-1.3,0.7c-0.3,1.7,0,3.3,0.1,5c0.6,16.3,6.5,30.3,18.6,41.5c2.9,2.7,5.9,5.1,9.2,7.3c1.1,0.7,1.4,0.6,1.5-0.7
		C990.7,752.6,990.7,751.1,990.7,749.7z"/>
	<path fill="#151D38" d="M1041.9,318.7c0,17.9,2,33.9,6,49.6c8.3,32.5,24,61,46.9,85.5c14,14.9,30,27.1,47.8,37
		c0.6,0.3,1.1,0.6,1.6,1c0.6,0.4,0.7,1,0.4,1.7c-0.4,0.6-0.9,0.9-1.6,0.7c-0.7-0.2-1.3-0.6-1.9-0.9c-13.5-7.4-26-16.3-37.4-26.7
		c-27.4-25-46.2-55.3-56.7-90.8c-0.1-0.3-0.2-0.6-0.3-0.9c-0.2-1.2-0.9-1.5-2-1.4c-3.7,0.2-7.3,0-11-0.3
		c-21.1-1.6-38.2-10.8-51.3-27.4c-2.5-3.2-4.9-6.5-6.9-10.1c-0.3-0.5-0.6-1-0.8-1.5c-0.3-1,0-1.7,1.1-2c0.5-0.1,0.9-0.2,1.4-0.2
		c25.9-1.3,47.6,6.9,63.9,27.7c0.5,0.7,0.9,2.1,1.9,1.7c0.5-0.2-0.1-1.6-0.3-2.4c-2.9-14.6-4.2-29.3-3.7-44.1
		c0.4-13.8,2.2-27.4,5.5-40.8c0.2-0.8,0.9-2,0.3-2.4c-0.6-0.4-1.4,0.8-2.2,1.2c-1,0.6-2,1.4-3.1,1.9c-3.6,1.7-5.9,0.4-6.3-3.6
		c-0.2-2.1,0-4.3,0.1-6.5c0.1-1.3,0.1-2.6,0-3.8c-0.1-1.7-0.7-2.1-2.4-1.8c-2,0.3-3.9,0.9-5.9,1.3c-1.2,0.3-2.5,0.6-3.8,0.7
		c-4.2,0.6-6.1-1.6-4.9-5.7c0.3-1.1,0.8-2.1,1.3-3.1c0.8-1.8,1.7-3.5,2.4-5.2c1.1-2.7,0.8-3.3-2.1-3.9c-2.2-0.4-4.4-0.7-6.6-1.1
		c-1.3-0.2-2.5-0.5-3.7-1.1c-2.1-1.1-2.7-2.9-1.7-5c0.4-0.8,0.9-1.5,1.6-2.1c1.6-1.5,3.3-3.1,4.9-4.6c0.7-0.7,1.4-1.3,2-2.1
		c0.9-1.2,0.9-1.6-0.3-2.6c-1.5-1.3-3.2-2.1-4.8-3.1c-1.5-0.9-3-1.8-4.3-3c-2.4-2.3-2.2-4.8,0.6-6.5c1.8-1.1,3.8-1.7,5.7-2.4
		c1.6-0.6,3.2-1.1,4.7-1.9c1-0.6,1.4-1.3,0.7-2.3c-0.8-1.3-1.6-2.6-2.5-3.8c-0.9-1.3-1.8-2.5-2.7-3.7c-0.6-0.9-1.1-1.8-1.4-2.8
		c-0.7-2.4,0.4-4.1,2.8-4.7c1.6-0.4,3.1-0.5,4.8-0.4c1.9,0.2,3.8,0.3,5.7,0.3c2.9,0,3.4-0.6,2.8-3.5c-0.4-2.4-1.1-4.7-1.6-7
		c-0.3-1.3-0.4-2.5-0.2-3.8c0.2-2,1.4-3,3.4-3c1.6,0,3,0.5,4.4,1.1c2.2,1,4.3,2.1,6.5,3c2.4,1,2.9,0.7,3.5-1.8
		c0.6-2.6,0.9-5.2,1.4-7.8c0.2-1.1,0.5-2.2,1.1-3.2c1.1-1.9,2.7-2.4,4.7-1.5c0.9,0.4,1.6,1,2.3,1.7c1.8,1.9,3.6,3.9,5.4,5.8
		c2.3,2.3,2.9,2.3,4.7-0.4c1.1-1.7,2.1-3.4,3.1-5.1c0.8-1.3,1.7-2.6,2.8-3.5c1.8-1.5,3.7-1.3,5.2,0.5c1.1,1.3,1.6,2.9,2.2,4.5
		c0.8,2.1,1.4,4.3,2.4,6.3c0.9,1.7,1.3,1.9,3,0.9c2.1-1.2,3.9-2.8,5.9-4.1c1.3-0.9,2.6-1.8,4.2-2.2c2.1-0.5,3.6,0.3,4.3,2.3
		c0.4,1,0.4,2,0.4,3.1c0,2.6-0.1,5.1-0.1,7.7c0,3.3,0.3,3.6,3.6,3c2.5-0.5,5-1.1,7.5-1.7c0.9-0.2,1.7-0.3,2.6-0.2
		c2.6,0.2,3.9,1.9,3.4,4.4c-0.3,1.8-1.1,3.5-1.9,5.2c-0.8,1.7-1.7,3.4-2.3,5.3c-0.6,1.9-0.4,2.3,1.6,2.9c2.4,0.7,4.9,0.8,7.3,1.3
		c1.2,0.2,2.4,0.5,3.5,1c2.6,1.2,3.3,3.2,1.8,5.6c-0.9,1.5-2.3,2.7-3.6,3.9c-1.4,1.3-2.9,2.6-4.2,3.9c-1.5,1.6-1.4,2.2,0.3,3.4
		c1.8,1.2,3.6,2.3,5.5,3.5c1.4,0.9,2.7,1.7,3.8,2.9c1.6,1.9,1.5,3.8-0.5,5.4c-1.2,1-2.6,1.5-4.1,2c-2.1,0.8-4.2,1.5-6.3,2.4
		c-2.1,0.9-2.3,1.5-1,3.5c1.2,1.9,2.6,3.7,3.9,5.5c0.8,1.2,1.7,2.4,2.1,3.8c0.9,2.7-0.3,4.6-3.1,5.1c-2,0.3-4,0.2-6,0.1
		c-1.8-0.1-3.5-0.2-5.3-0.1c-1.6,0.1-2,0.6-1.8,2.2c0.2,1.8,0.7,3.6,1.1,5.4c0.4,1.8,0.9,3.6,0.9,5.4c0.1,3.3-1.6,4.8-4.8,4.1
		c-2.2-0.4-4.2-1.6-6.2-2.5c-1.4-0.6-2.7-1.4-4.2-1.8c-1.6-0.4-1.8-0.4-2.3,1.2c-0.8,2.3-0.9,4.7-1.3,7.1c-0.2,1.3-0.5,2.7-1,3.9
		c-1.2,3-3.4,3.7-6.1,1.9c-1.3-0.9-2.4-2.1-3.5-3.3c-1.3-1.3-2.5-2.7-3.8-4c-1.8-1.8-2.4-1.7-3.9,0.4c-0.8,1.1-1.5,2.3-2.2,3.4
		c-1,1.6-1.9,3.2-3.1,4.6c-2.6,3-5.3,2.7-7.2-0.8c-0.8-1.5-1.3-3.1-1.9-4.7c-0.6-1.5-1.1-3-1.7-4.5c-0.3-0.7-0.6-1.7-1.5-1.7
		c-1,0-1,1.1-1.2,1.8c-1.8,6.6-3.2,13.2-4.2,19.9C1042.7,300.3,1041.8,310.3,1041.9,318.7z"/>
	<path fill="#FAE0D6" d="M1108.8,249.3C1108.8,249.4,1108.8,249.4,1108.8,249.3c1.5,0.1,3,0.1,4.6,0.1c2.5-0.1,2.8-0.5,1.6-2.6
		c-0.6-1-1.2-1.9-1.9-2.8c-0.9-1.2-1.8-2.4-2.7-3.7c-3.1-4.6-2.4-7,2.7-9c2.1-0.9,4.4-1.6,6.5-2.4c0.9-0.4,2.3-0.6,2.4-1.7
		c0.1-1.2-1.2-1.7-2.1-2.3c-2.1-1.4-4.3-2.6-6.3-4c-4-2.8-4.2-5.1-0.8-8.6c1.6-1.6,3.3-3,4.9-4.6c0.9-0.9,2.6-1.7,2.1-3.2
		c-0.4-1.2-2.2-1.1-3.4-1.3c-2.6-0.5-5.2-0.7-7.8-1.4c-3.3-1-4.3-2.9-3.3-6.2c0.5-1.7,1.3-3.3,2.1-4.8c0.8-1.6,1.6-3.1,2-4.9
		c0.3-1.4,0-1.9-1.4-1.7c-1.7,0.3-3.4,0.7-5.2,1.1c-2,0.5-4,1.1-6.1,1c-2.5,0-3.8-1.2-4.2-3.7c-0.3-1.7-0.2-3.4-0.1-5
		c0.1-1.8,0.2-3.5,0.1-5.3c0-2.6-0.6-2.9-2.8-1.6c-1.4,0.8-2.6,1.8-3.9,2.7c-1.3,0.9-2.5,1.9-4,2.7c-3.2,1.6-5.2,1-6.9-2.2
		c-0.5-0.9-0.8-1.9-1.2-2.9c-0.6-1.5-1-3-1.7-4.5c-0.5-1.1-0.7-2.9-2-3c-1.3-0.1-1.9,1.6-2.6,2.6c-1.4,2.1-2.5,4.5-4.1,6.5
		c-2.4,3-4.5,3.2-7.5,0.7c-1.8-1.6-3.3-3.5-5-5.2c-0.7-0.7-1.3-1.4-2.1-2c-1.2-0.9-1.6-0.8-2.1,0.6c-0.5,1.4-0.7,2.8-0.9,4.2
		c-0.3,2.1-0.5,4.3-1.2,6.3c-1,3-2.6,3.9-5.7,3.2c-1.7-0.4-3.3-1.3-4.9-2c-1.5-0.7-3-1.4-4.6-2c-2.1-0.8-2.6-0.3-2.2,1.9
		c0.2,1.1,0.5,2.2,0.7,3.3c0.5,2.1,1.1,4.2,1.2,6.3c0.3,3.5-1.1,5.1-4.6,5.3c-2.4,0.1-4.8,0-7.2-0.2c-1.2-0.1-2.4,0-3.6,0.2
		c-0.9,0.1-1.2,0.6-0.8,1.5c0.7,1.5,1.6,2.8,2.6,4c1.2,1.7,2.6,3.3,3.5,5.2c1.5,3.1,0.9,4.9-2.1,6.5c-2,1.1-4.2,1.7-6.2,2.5
		c-1.3,0.5-2.5,1-3.7,1.6c-1,0.6-1.1,1-0.2,1.8c1,1,2.2,1.6,3.3,2.4c1.8,1.1,3.8,2.1,5.4,3.5c2.9,2.4,3.1,4.4,0.6,7.3
		c-0.6,0.7-1.2,1.3-1.8,1.9c-1.2,1.1-2.4,2.1-3.5,3.2c-1,1-2.8,1.9-2.3,3.3c0.4,1.2,2.3,1.1,3.6,1.4c2.5,0.5,5.1,0.6,7.5,1.4
		c3.4,1,4.4,2.8,3.3,6.2c-0.5,1.7-1.3,3.2-2.1,4.8c-0.5,1.1-1.1,2.2-1.5,3.3c-0.4,0.9-1.2,2-0.4,2.9c0.7,0.8,2,0.2,3,0.1
		c1.1-0.2,2.2-0.5,3.3-0.8c2-0.5,4-1,6.1-1.1c2.5-0.1,3.9,1,4.4,3.5c0.4,1.8,0.3,3.7,0.1,5.5c-0.1,1.8-0.3,3.5-0.2,5.3
		c0.2,2.3,0.7,2.6,2.6,1.5c1.1-0.6,2.1-1.4,3.2-2.1c1.6-1.1,3.1-2.3,4.7-3.2c3.3-1.8,5.4-1.2,7,2.2c0.6,1.1,1,2.4,1.5,3.5
		c0.5,1.2,0.8,2.4,1.3,3.6c0.5,1.2,0.6,3.1,2.1,3.2c1.3,0.1,1.8-1.6,2.5-2.6c1.2-1.8,2.2-3.7,3.4-5.5c2.9-4.2,5.3-4.4,8.9-0.9
		c0.9,0.8,1.6,1.7,2.5,2.6c1,1,1.9,2.1,3,3.1c2,2,2.6,1.8,3.2-1c0.2-0.9,0.3-1.7,0.5-2.6c0.5-2.4,0.6-4.8,1.4-7
		c1-2.7,2.6-3.6,5.4-2.9c2,0.5,3.7,1.4,5.5,2.3c1.3,0.6,2.6,1.3,3.9,1.8c2.2,0.8,2.7,0.5,2.3-2c-0.2-1.3-0.6-2.5-0.8-3.7
		c-0.5-2.1-1.1-4.2-1.2-6.4c0-3,1.2-4.4,4.2-4.6C1105.3,249.2,1107.1,249.3,1108.8,249.3z"/>
	<path fill="#A3CEB5" d="M983.8,334.8c-1.2,0-2.4,0-3.6,0c-1.7,0-1.8,0.2-0.9,1.5c1.2,1.9,2.4,3.8,3.8,5.5
		c7.6,10.2,16.9,18.5,28.9,23.4c8.1,3.3,16.7,4.9,25.4,5.3c2,0.1,4,0.3,6,0c1.5-0.2,1.5-0.3,0.8-1.6c-0.1-0.1-0.2-0.3-0.2-0.4
		c-5.5-8.5-12.1-15.9-20.3-21.8C1011.7,338.4,998.2,335.2,983.8,334.8z"/>
	<path fill="#151D38" d="M882.3,457.5c2.9-0.1,5.5,1.3,7.8,3.3c2.7,2.2,4.8,4.9,6.6,7.9c3.9,6.2,6.7,12.9,9.1,19.8
		c1.1,3.2,2.2,6.4,3,9.6c0.4,1.6,1.3,2.5,2.8,3.3c14.6,7.5,29.1,15.1,43.6,22.7c7.7,4,15.5,8,23.2,12.1c0.4,0.2,0.7,0.4,1,0.6
		c0.9,0.5,1.4,1.1,0.8,2.1c-0.5,0.8-1.2,0.9-2.1,0.5c-0.5-0.3-1-0.5-1.5-0.7c-18-9.4-36-18.8-54-28.2c-4.3-2.2-8.5-4.4-12.7-6.7
		c-1.2-0.6-2.3-0.7-3.6-0.2c-8.4,3-16.9,5.5-25.7,6.7c-4.6,0.7-9.2,1-13.9,0.2c-2-0.3-3.9-0.9-5.7-1.8c-3.8-2-6-6-5.5-10.1
		c0.5-4.5,3-7.5,7.3-9c0.2-0.1,0.5-0.2,0.7-0.2c1.2-0.1,1.5-0.6,1-1.7c-0.9-1.9-1.1-4-0.6-6.1c0.9-3.9,3.2-6.5,7-7.8
		c2-0.7,2-0.6,1.3-2.8c-1.5-5,0.6-10.1,5.2-12.4C878.9,457.8,880.5,457.5,882.3,457.5z"/>
	<path fill="#F8E8A0" d="M872.7,508c0.6,0,1.1-0.1,1.6-0.1c10.6-0.7,20.8-3.6,30.7-7c1.5-0.5,1.5-0.6,1-2.3
		c-2.2-7.5-4.8-14.9-8.3-22c-2-4.2-4.4-8.2-7.5-11.6c-1.3-1.4-2.7-2.7-4.5-3.6c-3.7-1.9-7.8-0.9-9.9,2.5c-2.1,3.4-1.3,7.5,2,10
		c0.9,0.7,2.2,1.1,1.3,2.6c-0.7,1.3-1.8,0.5-2.8,0.2c-3.6-1.1-7.3,0.3-9,3.5c-1.7,3.3-0.8,7,2.2,9.4c0.4,0.3,0.8,0.5,1.2,0.8
		c0.6,0.5,0.6,1.1,0.3,1.8c-0.3,0.6-0.9,0.9-1.6,0.7c-0.5-0.2-1-0.5-1.6-0.6c-2.8-0.6-5.3-0.2-7.3,1.9c-2,2.1-2.7,4.5-1.9,7.3
		c0.7,2.5,2.5,4.1,4.8,5C866.6,507.7,869.7,507.9,872.7,508z"/>
	<path fill="#151D38" d="M272.1,326c-4.3-0.2-7.5-0.2-10.8-0.5c-1.9-0.2-3.3,0.4-4.7,1.7c-14.1,13-28.3,25.9-42.5,38.8
		c-4.3,3.9-8.6,7.9-12.9,11.8c-1.4,1.2-2.2,1.4-2.9,0.8c-0.8-0.7-0.5-1.7,0.9-3c18.5-16.9,37-33.7,55.5-50.6
		c1.5-1.4,2.1-2.7,2.1-4.7c0.1-10.1,0.9-20.1,3.5-29.9c1.1-4,2.6-7.9,5.2-11.3c2.3-3,5.2-4.9,9.2-4.8c5.5,0.1,9.9,4.4,10.1,9.8
		c0,0.3,0,0.6,0,1c0,2.1,0,2.1,2.1,2.2c5.9,0.3,10.1,4.8,10,10.7c0,0.3,0,0.6-0.1,1c-0.2,1,0.1,1.5,1.2,1.3c1.4-0.2,2.7,0.2,4,0.6
		c7.1,2.4,9.2,11.5,4,16.9c-2,2.1-4.6,3.5-7.3,4.5c-5,2-10.4,2.7-15.7,3.1C279.1,325.8,275.1,325.9,272.1,326z"/>
	<path fill="#F8E8A0" d="M272,323.1c0-0.1,0-0.1,0-0.2c1.9,0,3.8,0.1,5.7,0c6.5-0.2,12.9-0.9,19.1-2.9c2.4-0.8,4.8-1.9,6.6-3.7
		c3-2.9,3.4-7,0.9-10.2c-2.4-3-6.5-3.7-9.9-1.5c-0.5,0.3-0.9,0.7-1.4,0.9c-0.5,0.2-1.1,0.2-1.5-0.3c-0.5-0.5-0.6-1.1-0.1-1.7
		c0.3-0.5,0.7-0.9,1-1.3c2.2-3,2-6.8-0.5-9.5c-2.5-2.6-6.3-3.1-9.4-1.2c-0.3,0.2-0.5,0.4-0.8,0.5c-0.8,0.6-1.6,0.9-2.3,0
		c-0.6-0.7-0.3-1.5,0.2-2.1c0.2-0.2,0.4-0.5,0.6-0.7c2.3-3.1,2.1-7.1-0.6-9.8c-2.7-2.7-6.8-2.9-9.8-0.5c-1.1,0.8-2,1.9-2.7,3
		c-1.6,2.4-2.7,5.1-3.5,7.8c-3,10.1-3.8,20.5-3.9,31c0,1.7,0,1.8,1.7,1.9C265,322.8,268.5,322.9,272,323.1z"/>
	<path fill="#151D38" d="M362,651c1,0.1,1.9,0.2,2.8,0.3c1.7,0.3,1.7,0.3,2.1-1.5c1.2-5.8,6.2-9.8,12-9.7
		c5.8,0.1,10.5,4.3,11.5,10.1c0.3,1.7,0.3,1.7,2,1.4c5.9-1,10.9,1.4,13.3,6.3c3,6,0.6,13-5.5,16.1c-1.6,0.8-1.6,0.8-0.8,2.3
		c2.7,5.6,1.1,12-3.8,15.3c-5,3.4-11.3,2.6-15.7-1.9c-1.1-1.1-1.1-1.1-2.2,0.1c-4.2,4.3-10.8,4.9-15.6,1.6
		c-4.8-3.4-6.4-9.6-3.8-15.2c0.8-1.6,0.8-1.6-1-2.4c-5.2-2.4-8-7.8-6.8-13.2C351.6,654.9,356.2,651.1,362,651z"/>
	<path fill="#FAE0D6" d="M369.6,652.5c0.1,0.7,0.1,1.2,0.1,1.7c0,1.6-0.8,2.2-2.3,1.5c-0.7-0.3-1.4-0.8-2.1-1.1
		c-3.9-1.6-8.4-0.2-10.8,3.4c-2.3,3.5-2,8,0.9,11c1.7,1.8,3.8,2.9,6.4,2.9c0.9,0,1.6,0.2,1.9,1.1c0.3,0.8-0.2,1.4-0.8,1.8
		c-0.2,0.2-0.4,0.3-0.5,0.5c-2.5,2.8-3.4,6-2,9.5c1.4,3.5,4,5.5,7.8,5.7c3.9,0.2,6.7-1.6,8.6-5c0.2-0.4,0.3-0.8,0.5-1.1
		c0.7-1.1,2-1.2,2.7,0c0.3,0.5,0.5,1.2,0.8,1.7c1.8,3.3,5.6,5.2,9.1,4.6c3.6-0.7,6.1-2.6,7.3-6.1c1.1-3.4,0.3-6.5-2.1-9.1
		c-0.6-0.6-1.5-1.1-1.1-2.2c0.4-1.2,1.4-1,2.4-1.2c0.4-0.1,0.8-0.2,1.2-0.3c4.5-1.4,7.1-5.6,6.3-10.2c-0.7-4.3-4.6-7.3-9.1-7.3
		c-1.8,0-3.4,0.6-4.9,1.6c-0.6,0.4-1.3,0.7-2,0.2c-0.7-0.5-0.7-1.2-0.5-1.9c0-0.2,0.1-0.3,0.1-0.5c0.5-3.7-0.7-6.8-3.8-9
		c-3-2-6.1-2.2-9.3-0.5C371,646,369.5,648.9,369.6,652.5z"/>
	<path fill="#151D38" d="M855.2,386.2c-3.6,0.1-6.4-1.3-8.8-3.8c-1.2-1.2-1.2-1.2-2.4,0c-3.7,3.6-8.9,4.7-13.5,2.6
		c-4.4-2-7.2-6.4-7.1-11.3c0.1-1.8,0.5-3.5,1.3-5.1c0.7-1.5,0.7-1.5-0.9-2.3c-5.7-2.6-8.4-8.6-6.6-14.5c1.7-5.7,7.6-9.3,13.5-8.2
		c2.3,0.4,2.3,0.4,2.8-1.7c1.2-5.5,5.9-9.3,11.5-9.3c5.5-0.1,10.2,3.6,11.6,8.9c0.1,0.5,0.3,0.9,0.3,1.4c0,1.2,0.5,1.5,1.6,1.2
		c2-0.6,4.1-0.5,6.1,0c4.5,1.3,8.1,5.2,8.6,9.6c0.7,5.3-1.6,9.9-6,12.3c-0.1,0.1-0.3,0.1-0.4,0.2c-1.7,0.9-1.7,0.9-0.8,2.7
		c1.2,2.6,1.4,5.4,0.8,8.2C865.4,383.1,859.8,386.6,855.2,386.2z"/>
	<path fill="#FAE0D6" d="M855.2,383.3c3.6-0.1,6.3-1.7,7.9-4.9c1.7-3.3,1.4-6.5-0.8-9.5c-0.4-0.5-0.9-0.9-1.3-1.4
		c-1.2-1.4-0.9-2.4,1-2.9c0.2-0.1,0.5,0,0.7-0.1c3.9-0.7,6.4-2.9,7.3-6.7c1-3.7-0.2-6.8-3.1-9.2c-3.1-2.4-6.4-2.7-9.9-0.8
		c-0.4,0.2-0.7,0.5-1,0.6c-1.6,0.7-2.5,0-2.3-1.7c0-0.3,0.2-0.6,0.2-0.9c0.6-4.6-2.4-9-6.9-10.1c-4.4-1-9,1.5-10.5,5.9
		c-0.6,1.6-0.5,3.3-0.3,5c0.2,1.6-0.8,2.2-2.3,1.6c-0.5-0.2-1-0.6-1.5-0.8c-1.5-0.8-3.2-1.1-4.9-0.9c-4.5,0.5-8,4.2-8.1,8.7
		c-0.2,4.6,3.2,8.5,8,9.3c1,0.2,2.2-0.3,2.7,1.1c0.4,1.3-0.8,1.8-1.4,2.5c-4.7,5.2-2.2,13.3,4.6,14.9c3.8,0.9,7.7-0.9,9.8-4.4
		c0.5-0.9,0.5-2.4,2-2.4c1.7,0,1.5,1.6,2.2,2.5c0.1,0.2,0.3,0.4,0.4,0.6C849.5,381.9,852,383.2,855.2,383.3z"/>
	<path fill="#151D38" d="M489.6,182.6c-3.8,0.1-6.8-1.2-9.2-3.8c-1.2-1.2-1.2-1.2-2.4,0c-6.6,6.5-17.4,3.9-20-4.9
		c-0.9-3-0.6-6,0.8-8.9c0.7-1.5,0.7-1.5-0.9-2.2c-5.1-2.4-7.7-7.1-7.1-12.7c0.8-6.5,7.2-11.3,13.6-10.1c0.3,0.1,0.6,0.1,0.9,0.2
		c1.6,0.3,1.6,0.3,1.9-1.3c0.9-4.4,3.4-7.5,7.6-9.1c7-2.6,14.5,1.7,15.9,9c0.4,1.9,0.4,1.9,2.4,1.6c5.9-1.1,11.6,2.2,13.6,7.7
		c2,5.7-0.5,11.8-5.9,14.7c-0.3,0.1-0.6,0.3-0.9,0.4c-0.9,0.3-0.8,0.8-0.4,1.5c0.6,1.1,1.1,2.3,1.4,3.6
		C502.4,175.8,497,182.6,489.6,182.6z"/>
	<path fill="#B2ACBF" d="M488.2,179.7c5.6,0,9.6-3.5,10-8.2c0.2-2.9-0.8-5.3-2.8-7.3c-0.6-0.6-1.1-1.2-0.8-2.1c0.3-0.8,1-0.9,1.7-1
		c0.2,0,0.5,0,0.7-0.1c3.7-0.8,6.2-3,7.1-6.6c0.9-3.7-0.1-6.8-3.1-9.2c-3-2.4-6.2-2.7-9.7-1c-0.5,0.2-0.9,0.6-1.5,0.8
		c-1.4,0.6-2.2,0-2.2-1.5c0-0.6,0.1-1.1,0.2-1.7c0.3-3.7-1.1-6.6-4.3-8.5c-3.1-1.9-6.3-1.9-9.3,0c-3.1,1.9-4.5,4.8-4.3,8.5
		c0.1,1,0.8,2.1-0.4,2.8c-1.2,0.7-1.9-0.3-2.8-0.8c-3.3-1.7-6.5-1.5-9.5,0.6c-3.1,2.2-4.3,5.4-3.6,9c0.7,3.6,3,5.9,6.5,6.9
		c0.8,0.2,1.7,0.3,2.6,0.4c1.4,0.3,1.8,1.3,1,2.4c-0.3,0.4-0.8,0.8-1.2,1.2c-2.7,3-3.1,7.3-1,10.7c2.1,3.4,6.1,5.1,9.9,4
		c2.9-0.8,4.9-2.6,6.1-5.3c0.3-0.8,0.7-1.5,1.7-1.4c0.9,0.1,1.2,0.7,1.4,1.4c0.2,0.4,0.4,0.9,0.6,1.3
		C483.2,178.2,485.8,179.6,488.2,179.7z"/>
	<path fill="#151D38" d="M911.9,150.5c-1.8,0-4.5-1.2-6.8-3.4c-1.6-1.5-1.6-1.6-3.1-0.1c-6.1,5.8-15.9,3.9-19.2-3.8
		c-1.4-3.2-1.4-6.5,0.1-9.8c0.9-2,0.9-2-1-2.9c-4.2-2.1-6.6-5.5-6.8-10.3c-0.2-4.8,1.9-8.5,6-10.9c2.7-1.6,5.7-2,8.8-1.1
		c1.2,0.4,1.6,0,1.8-1.2c1.2-6.1,5.8-9.9,11.7-9.9c6,0,10.5,3.8,11.8,9.9c0.4,1.8,0.4,1.8,2.1,1.5c6.1-1.2,11.8,1.9,13.8,7.6
		c2.1,5.8-0.4,11.8-6,14.8c-1.6,0.8-1.6,0.8-0.7,2.6C928.1,141.7,922.2,150.8,911.9,150.5z"/>
	<path fill="#F8E8A0" d="M903.6,100c-5.6,0-9.8,4.7-9.1,10.3c0,0.3,0.2,0.6,0.2,0.9c0,1.3-1,2-2.2,1.4c-0.5-0.2-1-0.6-1.5-0.8
		c-2.7-1.4-5.4-1.4-8.1-0.1c-3.7,1.8-5.6,5.7-4.8,9.8c0.7,3.9,4,6.8,8.4,7.3c0.8,0.1,1.7,0,2,0.9c0.3,0.9-0.2,1.5-0.8,2.1
		c-0.2,0.2-0.3,0.3-0.5,0.5c-2.6,2.8-3.3,6-1.9,9.5c1.4,3.5,4.2,5.5,7.9,5.7c3.6,0.2,6.4-1.5,8.3-4.7c0.2-0.4,0.4-0.9,0.6-1.3
		c0.8-1.3,2-1.4,2.7,0c0.3,0.5,0.5,1.2,0.8,1.7c1.8,3,4.4,4.6,7.9,4.5c3.5-0.1,6.1-1.7,7.8-4.8c2-3.6,1.3-7.4-1.8-10.7
		c-0.6-0.6-1.1-1.2-0.8-2.1c0.3-0.8,1-0.9,1.7-1c0.2,0,0.5-0.1,0.7-0.1c3.8-0.7,6.3-3,7.2-6.8c0.9-3.6-0.3-6.7-3.1-9
		c-3-2.4-6.4-2.7-9.9-1c-0.9,0.5-1.7,1.4-2.8,0.7c-1.1-0.7-0.5-1.9-0.4-2.9C912.9,104.7,908.9,100,903.6,100z"/>
	<path fill="#151D38" d="M391.6,204.2c0.7,0,1,0,1.3,0c2.7-0.2,3,0.9,2.5,3c-0.7,3.2-1.8,6.3-3.4,9.2c-3.6,6.4-9.2,10-16.3,11.4
		c-2.2,0.4-4.4,0.7-6.7,0.6c-1.7-0.1-2.1-0.5-1.8-2.3c1.9-10.2,7.7-19,19.8-21.3C388.7,204.4,390.3,204.1,391.6,204.2z"/>
	<path fill="#151D38" d="M371.6,225.3c0.9-0.1,1.9-0.3,2.8-0.4c9.3-1.6,14.8-6.7,17.7-16.4c0.4-1.3,0.2-1.5-1.3-1.4
		c-2.5,0.2-4.9,0.7-7.2,1.6c-7.2,2.6-10.9,8.3-12.9,15.3C370.4,224.8,370.5,225.4,371.6,225.3z"/>
	<path fill="#151D38" d="M1166.1,396.9c-3.6,0.2-4-0.3-3-4.2c0.5-2.2,1.3-4.3,2.2-6.3c3.6-7.5,9.6-11.7,17.7-13.1
		c2-0.3,3.9-0.6,5.9-0.5c2,0.1,2.5,0.6,2.1,2.5c-2.2,10.9-8.2,18.7-19.5,21C1169.8,396.5,1168.1,396.7,1166.1,396.9z"/>
	<path fill="#151D38" d="M1167.6,393.8c11.2-1.2,17-6.8,20-16.8c0.4-1.2,0.1-1.5-1.1-1.4c-11.4,1.1-17.1,6.5-20.3,16.4
		C1165.7,393.7,1165.9,393.9,1167.6,393.8z"/>
	<path fill="#151D38" d="M777.2,779.7c0.1-1.9,0.6-4.2,1.3-6.5c2.5-8.3,8.2-13.5,16.4-16c1.9-0.6,3.8-1.1,5.9-1.1
		c1.6-0.1,1.9,0.3,2,1.9c0.4,9.2-5.4,18.6-14,22.5c-2.8,1.3-5.7,2.1-8.7,2.5C777.4,783.3,777,782.9,777.2,779.7z"/>
	<path fill="#151D38" d="M781.3,779.8c0.3-0.1,0.6-0.1,0.9-0.2c8.7-2.1,14.7-7.1,16.7-16.2c0.3-1.4,1.3-3.1,0.3-4
		c-0.8-0.7-2.6,0.3-3.8,0.7c-9.1,2.8-13.8,9.3-15.2,18.4C780.1,779.4,780.2,780,781.3,779.8z"/>
	<path fill="#151D38" d="M867.1,632.4c0,1,0,1.8,0,2.5c-0.1,1.7-0.6,2.1-2.3,1.8c-3.6-0.7-6.9-2-10-3.9c-6.4-3.9-9.7-9.7-10.8-17
		c-0.3-1.9-0.5-3.8-0.4-5.7c0.1-2.2,0.7-2.7,2.9-2.2C858.6,610.9,866.7,618.4,867.1,632.4z"/>
	<path fill="#151D38" d="M864.2,631.7c0-0.3,0-0.6-0.1-1c-0.1-0.9-0.3-1.9-0.4-2.8c-1.7-8.9-7.4-13.9-15.7-16.6
		c-1.1-0.4-1.4-0.1-1.3,1.2c0.7,10.8,5.6,17.1,15.6,20.6C864,633.7,864.2,633.5,864.2,631.7z"/>
	<path fill="#151D38" d="M1183.2,835.1c-2.6-0.2-5.1-0.7-7.5-1.4c-6.5-2-11.1-6-14.1-12.1c-1.3-2.7-2.2-5.5-2.7-8.4
		c-0.3-2.1,0.1-2.7,2.2-2.6c14.6,0.5,23.3,8.1,25.8,22.4c0.3,1.5-0.2,2-1.8,2.1C1184.5,835.1,1183.9,835.1,1183.2,835.1z"/>
	<path fill="#151D38" d="M1182.4,832c1.3,0,1.4-0.1,1-1.5c-0.7-2.9-1.9-5.6-3.6-8.1c-3.9-5.9-9.8-8.1-16.5-8.9
		c-1-0.1-1.4,0.3-1.1,1.2c0.5,1.9,1.1,3.7,2,5.4C1167.9,827.8,1174.3,831.2,1182.4,832z"/>
	<path fill="#151D38" d="M1212.5,633.1c-5,0-8.9-4-8.9-9c0-5,4-8.9,9-8.9c5,0,9,4.1,8.9,9C1221.5,629.2,1217.5,633.1,1212.5,633.1z"
		/>
	<path fill="#151D38" d="M613.5,847.9c5,0,9,3.9,9.1,8.8c0.1,4.9-3.9,9-8.9,9c-5.1,0-9-3.8-9.1-8.8
		C604.5,852,608.5,847.9,613.5,847.9z"/>
	<path fill="#151D38" d="M1035.8,221.2c0-15.7,12.7-28.5,28.5-28.6c15.8-0.1,28.8,12.8,28.8,28.6c0,15.7-12.8,28.6-28.5,28.6
		C1048.5,249.8,1035.8,237.1,1035.8,221.2z"/>
	<path fill="#151D38" d="M369.7,667.7c0-5.1,3.8-9,8.9-9c5,0,8.9,3.9,9,8.9c0,5-3.9,9-8.9,9C373.6,676.6,369.7,672.7,369.7,667.7z"
		/>
	<path fill="#151D38" d="M845.1,369.1c-5,0-9-3.9-9-8.9c0-5,3.9-9,8.9-9c4.9,0,9,4,9.1,8.9C854.1,365,850.1,369,845.1,369.1z"/>
	<path fill="#151D38" d="M479.1,165.6c-5,0-9-4-9-8.9c0-5,4-9,9-9c5,0,9,3.9,9,8.9C488.1,161.5,484.1,165.5,479.1,165.6z"/>
	<path fill="#151D38" d="M903.5,133.4c-5.1,0-9-3.8-9-8.8c0-5,3.9-9,8.9-9.1c4.9-0.1,9,3.9,9,8.9
		C912.4,129.4,908.5,133.4,903.5,133.4z"/>
</g>
</svg>
